<?xml version="1.0" encoding="UTF-8" standalone="no"?>
<!-- Created with Inkscape (http://www.inkscape.org/) -->

<svg
   width="333.82532mm"
   height="252.80241mm"
   viewBox="0 0 333.82532 252.80241"
   version="1.1"
   id="svg1"
   xmlns:inkscape="http://www.inkscape.org/namespaces/inkscape"
   xmlns:sodipodi="http://sodipodi.sourceforge.net/DTD/sodipodi-0.dtd"
   xmlns="http://www.w3.org/2000/svg"
   xmlns:svg="http://www.w3.org/2000/svg">
  <sodipodi:namedview
     id="namedview1"
     pagecolor="#ffffff"
     bordercolor="#000000"
     borderopacity="0.25"
     inkscape:showpageshadow="2"
     inkscape:pageopacity="0.0"
     inkscape:pagecheckerboard="0"
     inkscape:deskcolor="#d1d1d1"
     inkscape:document-units="mm" />
  <defs
     id="defs1" />
  <g
     inkscape:label="图层 1"
     inkscape:groupmode="layer"
     id="layer1"
     transform="translate(26.2991,17.315201)">
    <rect
       style="fill:#ffffff;fill-opacity:1;stroke:#ffffff;stroke-width:1.065;stroke-opacity:1"
       id="rect108"
       width="332.76031"
       height="251.73743"
       x="-25.7666"
       y="-16.7827"
       ry="31.27058" />
    <path
       style="fill:#000000;fill-opacity:1;stroke:#000000;stroke-width:1.065;stroke-opacity:1"
       id="path89"
       d="m 38.793277,17.10246 c -2.266027,-0.112997 -4.376259,0.813546 -6.129139,2.210173 -0.576996,0.459728 -1.089904,0.99459 -1.634855,1.491885 -2.326765,2.536217 -4.24555,5.422364 -5.453939,8.659315 -0.781631,2.09378 -0.92333,3.099678 -1.394651,5.255943 -0.267399,2.598623 -0.40197,5.751176 0.400252,8.280743 0.315544,0.994974 0.783163,1.940351 1.28474,2.855754 0.493331,0.900353 1.03804,1.781916 1.69064,2.574459 0.685294,0.83225 1.533906,1.515327 2.300861,2.272991 0.904632,0.615717 1.744861,1.338786 2.713898,1.847157 4.279704,2.245188 10.123476,3.210044 14.921793,3.110343 1.127765,-0.02344 2.248151,-0.188251 3.372228,-0.282376 3.733816,-0.754256 7.199038,-2.394249 9.771142,-5.270222 1.319826,-1.475751 1.46622,-2.055241 2.321774,-3.782343 1.469287,-4.081693 0.6119,-7.582969 -0.74295,-11.520731 -0.793374,-2.059154 -1.646483,-4.122947 -2.803223,-6.010783 -0.675465,-1.102379 -1.119769,-1.644833 -1.889159,-2.669001 -1.955472,-2.485286 -4.220824,-3.968212 -7.029064,-5.310974 -0.667472,-0.251039 -2.07949,-0.81467 -2.792788,-0.955478 -1.665716,-0.328818 -3.604472,-0.376274 -5.248955,0.09595 -0.518012,0.148751 -0.99418,0.416485 -1.491271,0.624727 -0.650584,0.278817 -0.256278,1.198884 0.394306,0.920067 v 0 c 0.423614,-0.186337 0.827384,-0.426651 1.270836,-0.55901 1.482349,-0.442444 3.272766,-0.417699 4.781153,-0.124861 0.664263,0.128961 2.029963,0.668546 2.655499,0.90196 2.629566,1.253033 4.835736,2.678211 6.660242,5.009227 0.722754,0.960175 1.18137,1.523171 1.814272,2.55371 1.128069,1.836799 1.957993,3.846658 2.731809,5.850713 1.240907,3.592145 2.127729,7.025201 0.790737,10.753354 -0.76666,1.577102 -0.9143,2.14544 -2.109015,3.494307 -2.407788,2.718454 -5.659017,4.275305 -9.169945,5.001969 -1.083871,0.09315 -2.164022,0.255053 -3.251618,0.279445 -4.546425,0.10196 -10.331831,-0.835482 -14.396633,-2.938901 -0.918612,-0.475356 -1.716034,-1.155198 -2.574051,-1.732796 -0.72208,-0.703181 -1.521844,-1.334551 -2.166242,-2.109547 -0.986817,-1.18681 -2.34927,-3.577563 -2.825759,-5.055941 -0.782046,-2.426415 -0.64721,-5.395815 -0.40745,-7.890836 0.447618,-2.061752 0.590975,-3.06637 1.332625,-5.065432 1.153676,-3.109642 2.989707,-5.882581 5.214392,-8.325091 0.507148,-0.467361 0.984771,-0.968945 1.521444,-1.402082 1.558372,-1.257725 3.432051,-2.128692 5.461879,-2.042224 0.703971,0.07367 0.808154,-0.921894 0.104185,-0.995563 z" />
    <path
       style="fill:#000000;fill-opacity:1;stroke:#000000;stroke-width:1.065;stroke-opacity:1"
       id="path90"
       d="m 31.963346,110.20827 c -3.297637,0.64796 -4.859612,3.15276 -6.541638,5.81351 -1.675976,3.06088 -2.687039,6.46803 -2.821621,9.96711 -0.09951,2.58715 0.131178,3.20551 0.542005,5.76149 0.820622,2.46664 0.960884,3.38807 2.356634,5.60427 0.522561,0.82974 1.060212,1.67674 1.781747,2.34075 1.616183,1.48734 4.001442,2.57296 6.106358,3.08055 1.218875,0.29393 2.486454,0.32518 3.729681,0.48777 3.719671,0.007 7.349627,-0.39151 10.692137,-2.15265 1.078865,-0.56845 2.128129,-1.22213 3.049474,-2.021 2.280677,-1.97752 3.135699,-3.66473 4.749631,-6.14398 0.502486,-1.06806 1.135853,-2.08385 1.507461,-3.2042 1.296754,-3.90951 0.937252,-8.59732 -0.879147,-12.29092 -0.408655,-0.83099 -0.986655,-1.56738 -1.479984,-2.35107 -0.64157,-0.65283 -1.225976,-1.36724 -1.924709,-1.95849 -2.677433,-2.26556 -6.210123,-3.44265 -9.649119,-3.85052 -0.845076,-0.10022 -1.698574,-0.10791 -2.54786,-0.16186 -0.820614,0.0278 -1.644804,0.002 -2.461837,0.0835 -2.923101,0.29138 -6.471396,1.12527 -9.063998,2.55416 -0.455329,0.25095 -0.865523,0.57626 -1.298284,0.86439 -0.587716,0.39444 -0.02988,1.2256 0.557834,0.83115 v 0 c 0.388636,-0.26315 0.755817,-0.56118 1.165911,-0.78946 2.465601,-1.37248 5.888437,-2.17585 8.673422,-2.45984 0.784643,-0.08 1.576414,-0.0565 2.364618,-0.0848 0.813621,0.0498 1.631091,0.056 2.440864,0.14939 3.234875,0.37319 6.572514,1.45885 9.107458,3.56856 0.648793,0.53996 1.193789,1.19366 1.790684,1.79048 0.462235,0.72106 1.004401,1.39674 1.386705,2.16318 1.712341,3.43289 2.108189,7.86289 0.911111,11.51728 -0.353255,1.07839 -0.960612,2.05624 -1.440918,3.08437 -1.488644,2.30335 -2.368584,4.01438 -4.465116,5.85586 -3.770659,3.31193 -8.249113,3.94128 -13.059706,4.01356 -1.172141,-0.14545 -2.366087,-0.1684 -3.516426,-0.43634 -1.846726,-0.43014 -4.212064,-1.44462 -5.651326,-2.74738 -0.683855,-0.61899 -1.192929,-1.41445 -1.687847,-2.19282 -1.330549,-2.09261 -1.470466,-2.97325 -2.257378,-5.30417 -0.15116,-0.92236 -0.36303,-1.8368 -0.453481,-2.76707 -0.414457,-4.26262 0.568657,-8.51858 2.591728,-12.26726 1.478339,-2.35037 2.828505,-4.65316 5.705931,-5.34651 0.707774,-0.008 0.696772,-1.00872 -0.01101,-1.00094 z" />
    <path
       style="fill:#000000;fill-opacity:1;stroke:#000000;stroke-width:1.065;stroke-opacity:1"
       id="path91"
       d="m 97.745877,21.953258 c -1.089385,-0.215877 -2.289958,-0.404452 -3.342495,0.102961 -1.253879,0.604474 -1.59182,1.20567 -2.519912,2.241876 -0.353378,0.593635 -0.77302,1.152536 -1.060133,1.780903 -1.011097,2.212882 -1.528982,4.844957 -1.357876,7.273064 0.160073,2.271559 0.657569,3.571121 1.281642,5.737651 0.900901,1.932474 1.593919,3.788175 3.038771,5.415053 2.164771,2.437489 5.427811,4.25355 8.473616,5.302959 1.041,0.358666 2.12667,0.571441 3.19001,0.857165 2.4097,0.172347 4.11749,0.463807 6.51047,-0.01254 1.86521,-0.371288 4.27954,-1.395527 5.88717,-2.420456 2.20749,-1.407364 2.83001,-2.28481 4.60073,-4.147664 0.54443,-0.897125 1.20666,-1.732611 1.63328,-2.691376 1.27458,-2.864382 1.46227,-6.548845 0.87443,-9.60329 -0.53058,-2.756988 -1.15203,-3.612198 -2.3665,-6.087065 -1.393,-2.43115 -3.17616,-4.581765 -5.64824,-5.981062 -2.47038,-1.398336 -4.91923,-1.807608 -7.65907,-2.249065 -3.04237,-0.290542 -6.1464,-0.411604 -9.17766,0.0809 -0.607382,0.09868 -1.229843,0.169322 -1.804534,0.38929 -0.590754,0.226115 -1.101352,0.622492 -1.652027,0.933738 -0.611672,0.356173 -0.107966,1.221206 0.503706,0.865033 v 0 c 0.453567,-0.273521 0.867103,-0.628488 1.360707,-0.820562 0.542729,-0.21119 1.132118,-0.278832 1.706808,-0.373088 2.94053,-0.48228 5.9529,-0.363247 8.90507,-0.08685 2.53927,0.402084 4.94645,0.802607 7.23789,2.077075 2.33821,1.300481 4.01479,3.320637 5.32968,5.607521 1.14335,2.30386 1.76227,3.168582 2.26723,5.734143 0.55651,2.827464 0.425,6.330318 -0.73516,8.997138 -0.39003,0.896572 -1.00161,1.679479 -1.50242,2.519222 -1.65431,1.753716 -2.27289,2.619417 -4.33317,3.946525 -1.46445,0.943311 -3.80273,1.964161 -5.50951,2.31222 -2.24968,0.458772 -3.90528,0.192265 -6.17049,0.04313 -1.02016,-0.270957 -2.06132,-0.472564 -3.06049,-0.812868 -2.793868,-0.951564 -6.032448,-2.712075 -8.028991,-4.935953 -1.373862,-1.530297 -2.051253,-3.315192 -2.909752,-5.137518 -0.587089,-2.019345 -1.080342,-3.32174 -1.242542,-5.433113 -0.173693,-2.260983 0.297154,-4.72091 1.219587,-6.7911 0.255484,-0.573382 0.632264,-1.084621 0.948398,-1.626932 1.695255,-1.955138 2.284,-2.574144 4.875197,-2.034431 0.687761,0.167288 0.92434,-0.805352 0.23658,-0.972641 z" />
    <path
       style="fill:#000000;fill-opacity:1;stroke:#000000;stroke-width:1.065;stroke-opacity:1"
       id="path92"
       d="m 94.999079,111.99274 c -0.220737,0.0635 -0.454428,0.0926 -0.662208,0.1905 -2.46649,1.16209 -3.976616,4.74008 -4.97187,7.07054 -1.213474,3.45063 -2.026962,7.13098 -1.703122,10.81153 0.08729,0.99206 0.175069,2.00035 0.47717,2.94931 0.357767,1.12383 0.989478,2.14123 1.48422,3.21184 0.666523,0.98318 1.225463,2.04862 1.999565,2.94955 2.485284,2.89245 6.096738,5.16771 9.926516,5.69384 3.55377,0.48821 5.10652,-0.22619 8.51711,-1.04504 1.32052,-0.59112 2.6906,-1.08208 3.96156,-1.77336 3.37059,-1.83326 6.37772,-4.42354 8.6979,-7.47648 0.63203,-0.83164 1.24577,-1.69017 1.71054,-2.62564 0.45679,-0.91941 0.6901,-1.93382 1.03515,-2.90073 0.32493,-1.9236 0.75972,-3.47514 0.43043,-5.44174 -0.48887,-2.91968 -2.42472,-6.03 -4.39385,-8.18556 -0.70628,-0.77315 -1.54103,-1.41831 -2.31153,-2.12746 -0.86756,-0.56712 -1.68721,-1.21534 -2.60267,-1.70136 -4.76064,-2.52742 -10.00976,-2.91349 -15.27816,-3.03291 -2.317736,0.10408 -4.733654,-0.0633 -6.927645,0.86217 -1.452552,0.61275 -1.710214,1.04888 -2.766248,2.09002 -0.499451,0.50155 0.209841,1.20788 0.709292,0.70634 v 0 c 0.869733,-0.89248 1.117963,-1.30558 2.336964,-1.83532 2.089489,-0.90803 4.413552,-0.70776 6.625277,-0.82246 5.04795,0.1112 10.18621,0.47303 14.75464,2.87122 0.86926,0.45632 1.6483,1.06699 2.47246,1.60048 0.73114,0.6662 1.52387,1.27052 2.19343,1.99859 1.79945,1.9567 3.71809,4.93336 4.1872,7.59419 0.32203,1.82653 -0.0817,3.30172 -0.37389,5.09167 -0.31013,0.89591 -0.5121,1.83693 -0.9304,2.68773 -0.44068,0.89634 -1.02567,1.71883 -1.62787,2.51569 -2.22568,2.94513 -5.11393,5.44208 -8.35179,7.21873 -1.21479,0.66657 -2.5249,1.14236 -3.78735,1.71355 -3.15232,0.77712 -4.71321,1.48006 -7.99866,1.05719 -3.601549,-0.46356 -7.033634,-2.58902 -9.380853,-5.29652 -0.743402,-0.8575 -1.280472,-1.8741 -1.920711,-2.81115 -0.467587,-0.98291 -1.066718,-1.91344 -1.402768,-2.94873 -0.29237,-0.90071 -0.377629,-1.85974 -0.464145,-2.80276 -0.324766,-3.53996 0.463997,-7.08332 1.623317,-10.40448 0.809728,-1.91013 1.479409,-3.45723 2.78127,-5.08992 0.502815,-0.63059 0.854978,-1.06222 1.552446,-1.41237 0.165692,-0.0832 0.354838,-0.10763 0.532254,-0.16145 0.6995,-0.10817 0.546529,-1.09741 -0.152971,-0.98924 z" />
    <path
       style="fill:#000000;fill-opacity:1;stroke:#000000;stroke-width:1.065;stroke-opacity:1"
       id="path93"
       d="m 156.61801,19.078122 c -0.25143,0.0083 -0.51045,-0.03695 -0.75427,0.02499 -2.12589,0.54009 -3.65548,2.746335 -4.61137,4.564224 -0.39286,0.747125 -0.68532,1.542874 -1.02799,2.314311 -1.36596,3.770683 -1.99018,7.840477 -1.38715,11.835852 0.16565,1.097526 0.31349,2.221482 0.73798,3.247062 0.47449,1.146395 1.28307,2.123951 1.92461,3.185925 0.83285,0.894702 1.56092,1.899899 2.49855,2.684103 4.10083,3.429793 9.68429,4.657769 14.91253,4.672586 1.28011,0.0036 2.55404,-0.177932 3.83107,-0.266898 1.13716,-0.207664 2.29566,-0.321038 3.4115,-0.622986 2.88671,-0.78115 5.612,-2.254062 7.51523,-4.608345 0.5556,-0.687269 1.08628,-1.422538 1.41159,-2.244241 0.37201,-0.93966 0.43292,-1.974339 0.64938,-2.961508 -0.0147,-1.052377 0.0782,-2.111798 -0.0442,-3.157132 -0.52976,-4.522867 -2.73508,-8.863481 -5.21867,-12.607694 -0.57728,-0.870288 -1.23274,-1.686104 -1.84911,-2.529157 -1.59495,-2.097675 -3.47191,-3.922436 -5.59932,-5.472685 -1.25297,-0.913036 -2.46793,-1.688543 -3.93167,-2.230744 -0.72413,-0.268232 -1.49031,-0.405236 -2.23546,-0.607854 -0.80289,-0.04076 -1.61048,-0.218098 -2.40866,-0.122265 -2.79342,0.335389 -5.60454,1.848624 -7.66634,3.704569 -0.65296,0.587762 -1.20038,1.283115 -1.80056,1.924672 -0.48226,0.518104 0.25045,1.200114 0.73271,0.68201 v 0 c 0.56005,-0.604935 1.07168,-1.258609 1.68017,-1.814806 1.54314,-1.410541 2.57035,-2.041498 4.53084,-2.78525 0.80325,-0.304731 1.62565,-0.597874 2.47725,-0.711249 0.72599,-0.09665 1.46358,0.05945 2.19537,0.08917 0.68839,0.181724 1.39623,0.301383 2.06517,0.545171 1.40486,0.511991 2.53901,1.240204 3.74167,2.112835 2.05729,1.492747 3.87057,3.252328 5.41114,5.277724 0.59991,0.818339 1.23807,1.609974 1.79974,2.455018 2.39138,3.597851 4.53233,7.764419 5.07489,12.108497 0.12126,0.970896 0.0434,1.956398 0.0651,2.934597 -0.17317,0.879147 -0.20117,1.79986 -0.51952,2.637438 -0.28667,0.754216 -0.76577,1.430184 -1.26688,2.06257 -1.75352,2.212919 -4.30099,3.59977 -6.99061,4.3341 -1.07962,0.294764 -2.20114,0.406037 -3.30171,0.609054 -1.22924,0.089 -2.45525,0.268042 -3.6877,0.267013 -4.9398,-0.0041 -10.35575,-1.139476 -14.25421,-4.358278 -0.89098,-0.735647 -1.58414,-1.682438 -2.37622,-2.523656 -0.60066,-0.961925 -1.36231,-1.840416 -1.80199,-2.885774 -0.41117,-0.977545 -0.55341,-2.051939 -0.71563,-3.099953 -0.59276,-3.829381 0.004,-7.736756 1.30471,-11.355036 0.32004,-0.728843 0.59314,-1.480153 0.96011,-2.186528 0.69572,-1.339164 2.2004,-3.648622 3.80005,-4.096129 0.21023,-0.05881 0.43626,-0.01756 0.65439,-0.02634 0.70639,0.04485 0.76982,-0.954139 0.0634,-0.998988 z" />
    <path
       style="fill:#000000;fill-opacity:1;stroke:#000000;stroke-width:1.065;stroke-opacity:1"
       id="path94"
       d="m 162.04057,113.62688 c -2.71278,0.13942 -4.96031,1.35187 -6.82208,3.30387 -0.50126,0.52554 -0.93339,1.11293 -1.40008,1.66939 -0.41025,0.72314 -0.88179,1.41478 -1.23074,2.16941 -1.66895,3.60932 -2.10153,7.83487 -1.33741,11.7318 0.21958,1.11981 0.62722,2.1944 0.94082,3.2916 0.50086,1.0472 0.91295,2.1417 1.50259,3.14161 1.74069,2.95187 4.28764,5.49129 7.39232,6.99683 2.9772,1.44373 4.13085,1.34672 7.41693,1.83382 1.32072,0.0285 2.64376,0.169 3.96215,0.0856 4.09937,-0.25925 8.29171,-1.49284 11.80102,-3.65135 2.7189,-1.67234 3.71383,-2.90564 5.91915,-5.10179 0.68747,-0.9707 1.47251,-1.87919 2.06241,-2.9121 1.95999,-3.43194 2.98848,-7.74162 2.05295,-11.6519 -0.19706,-0.82366 -0.5881,-1.58843 -0.88214,-2.38265 -0.45205,-0.69013 -0.83361,-1.43196 -1.35613,-2.07038 -2.16662,-2.64717 -5.60649,-4.37074 -8.99109,-4.72438 -1.1479,-0.11994 -2.30815,-0.0267 -3.46223,-0.04 -3.33523,0.17543 -6.65809,0.73725 -9.8283,1.80718 -0.84578,0.28545 -1.65477,0.67013 -2.48215,1.00519 -0.65576,0.26644 -0.27896,1.19381 0.37679,0.92738 v 0 c 0.79246,-0.32308 1.56688,-0.69451 2.37737,-0.96924 3.07903,-1.04365 6.30735,-1.59383 9.54775,-1.76955 1.0862,0.006 2.17753,-0.0882 3.2586,0.0173 3.13121,0.30574 6.33946,1.87138 8.3687,4.29886 0.48142,0.57589 0.83594,1.24695 1.25391,1.87042 0.27511,0.7171 0.64144,1.40558 0.82531,2.15131 0.904,3.66631 -0.0524,7.72383 -1.87742,10.95362 -0.55707,0.98585 -1.30104,1.8537 -1.95155,2.78054 -2.08737,2.08933 -3.08702,3.321 -5.65587,4.91302 -3.36363,2.08458 -7.39894,3.28953 -11.33642,3.54773 -1.277,0.0837 -2.55898,-0.0503 -3.83847,-0.0754 -3.09357,-0.44264 -4.22474,-0.35188 -7.02882,-1.69091 -2.94559,-1.40662 -5.36443,-3.79781 -7.02261,-6.58292 -0.56538,-0.94963 -0.96194,-1.9901 -1.44291,-2.98516 -0.30239,-1.03969 -0.69484,-2.05733 -0.90716,-3.11909 -0.73912,-3.69622 -0.34747,-7.70079 1.21422,-11.13604 0.3189,-0.70147 0.75105,-1.34571 1.12658,-2.01857 0.92994,-1.11735 1.55079,-1.99391 2.70606,-2.88659 1.36655,-1.05594 3.08718,-1.63165 4.79472,-1.7286 0.70704,-0.0331 0.66027,-1.03298 -0.0468,-0.99991 z" />
    <path
       style="fill:#000000;fill-opacity:1;stroke:#000000;stroke-width:1.065;stroke-opacity:1"
       id="path95"
       d="m 240.94509,11.636258 c -0.31981,-0.479117 -1.43625,-1.370037 -2.05871,-1.140868 -2.19989,0.809934 -3.447,3.606824 -4.43079,5.46347 -0.36914,1.017434 -0.80694,2.012516 -1.10741,3.052301 -1.41237,4.887615 -1.45126,10.754937 -0.42766,15.720796 0.27923,1.35463 0.73345,2.667214 1.10018,4.00082 0.54236,1.20341 0.97928,2.460146 1.62709,3.610232 1.90434,3.38083 4.4856,5.834022 7.99015,7.500934 3.20701,1.525381 4.14016,1.433584 7.65273,2.043647 1.31586,0.06273 2.63113,0.237247 3.94757,0.188201 3.8997,-0.145288 7.63533,-1.220742 11.01887,-3.148618 0.97803,-0.55726 1.93667,-1.164635 2.80294,-1.883413 0.84577,-0.70176 1.5376,-1.570649 2.3064,-2.355972 2.31614,-3.291255 4.04334,-7.050772 4.58412,-11.073174 0.30538,-2.271483 0.11234,-2.947218 -0.10009,-5.207614 -0.80553,-3.576956 -2.05632,-7.190222 -4.45781,-10.042876 -1.67634,-1.991306 -2.81749,-2.669062 -4.88574,-4.234447 -2.88232,-1.978406 -6.12168,-3.142261 -9.48533,-3.994822 -1.87776,-0.4759426 -4.48401,-1.0217132 -6.4475,-1.0479175 -0.97304,-0.012986 -1.93864,0.1720918 -2.90796,0.2581378 -0.70483,0.064943 -0.61298,1.0617207 0.0918,0.9967777 v 0 c 0.90343,-0.08651 1.80278,-0.269404 2.7103,-0.259525 1.91994,0.0209 4.44204,0.552358 6.2759,1.014317 3.24612,0.817711 6.37521,1.92825 9.15974,3.83201 1.92746,1.450487 3.10044,2.159161 4.66325,4.001616 2.30254,2.714554 3.49986,6.163328 4.28691,9.572497 0.2068,2.102189 0.3963,2.790196 0.1174,4.903444 -0.50617,3.835805 -2.14061,7.428457 -4.32258,10.583632 -0.71609,0.741291 -1.35752,1.562846 -2.14833,2.223871 -3.58064,2.993001 -8.59061,4.679092 -13.21562,4.862168 -1.27534,0.05048 -2.55001,-0.116586 -3.82502,-0.174879 -3.38603,-0.573416 -4.22014,-0.472242 -7.3152,-1.920295 -3.32445,-1.555372 -5.77233,-3.857689 -7.58497,-7.050392 -0.62618,-1.102918 -1.04944,-2.309278 -1.57416,-3.463917 -0.35797,-1.291463 -0.80089,-2.562334 -1.07391,-3.874384 -0.99956,-4.803695 -0.97551,-10.506417 0.37797,-15.24083 0.28492,-0.996635 0.70125,-1.950923 1.05187,-2.926385 1.38215,-2.649266 0.82153,-1.932071 2.52959,-4.00946 0.26443,-0.321603 0.4664,-0.727037 0.82592,-0.93702 0.19012,-0.111037 0.93351,0.194928 1.09111,0.318761 0.13727,0.107863 0.22101,0.270311 0.33152,0.405467 0.40043,0.583659 1.22585,0.01737 0.82542,-0.566291 z" />
    <path
       style="fill:#000000;fill-opacity:1;stroke:#000000;stroke-width:1.065;stroke-opacity:1"
       id="path96"
       d="m 242.49452,108.09972 c -1.51876,0.65047 -2.74155,1.62245 -3.9506,2.74397 -0.64828,0.60134 -1.32482,1.1834 -1.87934,1.87216 -1.67489,2.08038 -2.58939,3.99746 -3.8701,6.32992 -1.06767,2.65253 -2.06145,4.63261 -2.43666,7.50766 -0.17709,1.35695 -0.16542,2.73869 -0.0813,4.10455 0.081,1.31502 0.2434,2.63536 0.57476,3.91052 0.81866,3.15047 1.82646,4.55165 3.38009,7.34041 1.83492,2.08437 3.52235,4.41948 6.12523,5.67628 4.86997,2.35144 11.11572,1.96985 16.2323,0.89509 1.87658,-0.39418 3.68548,-1.06067 5.52822,-1.591 3.74582,-1.97863 6.24441,-2.78626 8.9638,-6.1841 1.86404,-2.32908 3.34735,-6.2264 3.81627,-9.16629 0.63762,-3.99763 0.0427,-5.10299 -0.76235,-8.96647 -0.50038,-1.30538 -0.89479,-2.65649 -1.50116,-3.91616 -1.65201,-3.43195 -4.19894,-6.75043 -7.25797,-9.05074 -2.33096,-1.75282 -3.81721,-2.22474 -6.44046,-3.37032 -2.92169,-0.65977 -4.54608,-1.24348 -7.59943,-1.04643 -2.48801,0.16056 -5.81678,1.0689 -8.13783,1.98004 -1.14107,0.44793 -2.21126,1.05882 -3.31689,1.58823 -0.638,0.30651 -0.20454,1.20878 0.43347,0.90227 v 0 c 1.06294,-0.51241 2.0914,-1.10354 3.18882,-1.53723 2.16663,-0.85623 5.45133,-1.77313 7.78019,-1.93368 2.90037,-0.19994 4.476,0.35205 7.25226,0.96467 2.4693,1.07053 3.97292,1.5553 6.16481,3.19156 2.94365,2.19746 5.40308,5.38265 6.99889,8.67132 0.58727,1.21024 0.97068,2.50919 1.456,3.76379 0.78436,3.64455 1.35909,4.70855 0.77775,8.48916 -0.41633,2.7074 -1.81714,6.53237 -3.52124,8.69155 -2.58191,3.27139 -4.9906,4.05735 -8.57266,5.96713 -1.79542,0.52032 -3.55785,1.17214 -5.38627,1.56095 -4.72701,1.0052 -10.96734,1.44229 -15.49427,-0.70291 -2.46662,-1.16887 -4.11049,-3.4075 -5.85371,-5.3651 -1.47001,-2.62105 -2.48308,-4.04394 -3.26375,-6.99927 -0.32255,-1.22104 -0.47942,-2.48647 -0.56401,-3.74655 -0.0866,-1.29063 -0.11113,-2.59704 0.052,-3.88024 0.35296,-2.77604 1.31687,-4.70498 2.34282,-7.26741 1.17371,-2.14353 2.16268,-4.18523 3.69922,-6.1024 0.53766,-0.67085 1.19744,-1.23491 1.82535,-1.82215 1.12344,-1.05067 2.25465,-1.96401 3.67068,-2.57384 0.65686,-0.2637 0.28394,-1.19264 -0.37292,-0.92894 z" />
    <path
       style="fill:#000000;fill-opacity:1;stroke:#000000;stroke-width:1.065;stroke-opacity:1"
       id="path97"
       d="m 59.992159,50.544727 c 0.03659,0.202641 0.04966,0.410977 0.109767,0.60793 0.276842,0.907121 0.68806,1.688018 1.129033,2.532473 0.968314,1.854316 2.076627,3.623894 3.177902,5.400566 2.992917,4.555792 5.797971,9.224645 8.547518,13.929828 2.607556,4.503002 5.411722,8.88596 8.306094,13.208611 2.194975,3.174775 4.254889,6.438686 6.277554,9.724845 1.31236,2.272472 2.87655,4.36873 4.552387,6.38143 1.073853,1.26928 2.179322,2.51116 3.303323,3.73608 0.371842,0.38529 0.906102,1.3352 1.039764,-0.30336 0.01466,-0.17969 -0.274576,-0.2337 -0.411866,-0.35055 -0.539096,-0.45868 -1.187751,0.30372 -0.648658,0.76239 v 0 c 0.132215,0.11245 0.223827,0.35342 0.396645,0.33734 1.665939,-0.15508 0.805442,-0.61626 0.361654,-1.1226 -1.113187,-1.2131 -2.208033,-2.44296 -3.271674,-3.69989 -1.645816,-1.975795 -3.181625,-4.033613 -4.469114,-6.26554 -2.029378,-3.297026 -4.096178,-6.5717 -6.29826,-9.757085 -2.883104,-4.30563 -5.676315,-8.671353 -8.273598,-13.156713 -2.753947,-4.712681 -5.563338,-9.389112 -8.560985,-13.952201 -1.085265,-1.750494 -2.175092,-3.494032 -3.132563,-5.319202 -0.336619,-0.641678 -0.806625,-1.534676 -1.04072,-2.26777 -0.05316,-0.166481 -0.06476,-0.343477 -0.09713,-0.515212 -0.06267,-0.705036 -1.059741,-0.616405 -0.997069,0.08863 z" />
    <path
       style="fill:#000000;fill-opacity:1;stroke:#000000;stroke-width:1.065;stroke-opacity:1"
       id="path98"
       d="m 81.294321,101.34472 c 3.03067,0.48895 6.014564,1.22335 8.968459,2.05074 2.064036,0.6003 4.098978,1.29418 6.127078,2.00491 0.995656,0.41671 1.437119,0.26507 1.575271,-0.90371 0.08591,-2.294 0.06548,-4.590598 0.09578,-6.885845 0.02294,-1.58632 0.05548,-3.172476 0.08375,-4.758703 -0.0062,-0.106913 -0.01241,-0.213826 -0.0186,-0.320739 -0.04456,-0.706411 -1.043577,-0.643384 -0.999013,0.06302 v 0 c 0.0056,0.07996 0.01119,0.159922 0.01677,0.239882 -0.02829,1.58777 -0.06087,3.175468 -0.08382,4.763331 -0.02989,2.266106 -0.01243,4.533334 -0.09079,6.798404 -0.008,0.10791 -0.05666,0.22056 -0.02405,0.32373 0.01222,0.0386 0.0709,-0.0414 0.110159,-0.0514 0.07777,-0.0198 0.318397,0.0119 0.240649,-0.008 -0.07812,-0.02 -0.151778,-0.0546 -0.227758,-0.0816 -0.115708,-0.0412 -0.231537,-0.082 -0.347305,-0.123 -2.04828,-0.71778 -4.103556,-1.41829 -6.188237,-2.02417 -2.998594,-0.83925 -6.027518,-1.58483 -9.104302,-2.0788 -0.701439,-0.0948 -0.835485,0.8972 -0.134048,0.99198 z" />
    <path
       style="fill:#000000;fill-opacity:1;stroke:#000000;stroke-width:1.065;stroke-opacity:1"
       id="path99"
       d="m 120.61935,42.933059 c 0.26804,0.436329 0.52555,0.879308 0.80412,1.308991 1.38178,2.131306 2.92977,4.15866 4.39012,6.235369 2.42542,3.449098 1.82843,2.603381 4.22201,6.209014 2.8522,4.296236 5.31809,8.828876 8.03574,13.208498 1.83122,2.951088 1.97322,3.113293 3.8831,5.975421 3.04434,4.350663 6.15546,8.653544 9.19922,13.004758 2.0404,2.952683 4.30117,5.742291 6.44928,8.615394 2.06381,3.005616 4.03278,6.064066 6.24095,8.968306 1.72396,2.22787 3.57046,4.35585 5.48183,6.42378 0.11163,0.10953 1.11568,1.26751 1.31105,1.17414 0.2953,-0.14114 0.45498,-0.47062 0.68248,-0.70592 -0.0581,-0.70543 -1.05568,-0.62333 -0.99763,0.0821 v 0 c 1.30182,-0.53282 0.58207,-0.17713 -0.26084,-1.22979 -1.8898,-2.04428 -3.7154,-4.14797 -5.42011,-6.35023 -2.20706,-2.9017 -4.17057,-5.96061 -6.23605,-8.961808 -2.14194,-2.86454 -4.39578,-5.646153 -6.43072,-8.589745 -3.03957,-4.345218 -6.14608,-8.6424 -9.18684,-12.986636 -1.89901,-2.845324 -2.03889,-3.004593 -3.8607,-5.940296 -2.72469,-4.390638 -5.19643,-8.935074 -8.05681,-13.241625 -3.03711,-4.574345 -6.29963,-8.989542 -9.3208,-13.571493 -0.26288,-0.657185 -1.19228,-0.285414 -0.9294,0.371772 z" />
    <path
       style="fill:#000000;fill-opacity:1;stroke:#000000;stroke-width:1.065;stroke-opacity:1"
       id="path100"
       d="m 152.79967,106.05382 c 2.9419,0.99041 5.84995,2.07752 8.74409,3.19883 1.84072,0.72321 3.65332,1.51451 5.45796,2.32262 1.08678,0.48666 2.12563,1.00086 3.26263,1.35335 0.24742,0.007 0.498,0.0597 0.74227,0.0198 1.37929,-0.22539 1.77942,-1.93566 2.14388,-3.03401 0.62792,-2.19366 1.36482,-4.3555 1.93853,-6.5643 0.17774,-0.68513 -0.79118,-0.93649 -0.96892,-0.25136 v 0 c -0.56689,2.18795 -1.30016,4.32815 -1.91999,6.50136 -0.14955,0.45385 -0.60494,2.19101 -1.19679,2.34732 -0.14427,0.0381 -0.29801,0.0158 -0.44701,0.0237 -1.09784,-0.32829 -2.10244,-0.84243 -3.14808,-1.31061 -1.81947,-0.81467 -3.64702,-1.61225 -5.50287,-2.34129 -2.90177,-1.1241 -5.81731,-2.21443 -8.76694,-3.20736 -0.66605,-0.23954 -1.00481,0.70239 -0.33876,0.94193 z" />
    <path
       style="fill:#000000;fill-opacity:1;stroke:#000000;stroke-width:1.065;stroke-opacity:1"
       id="path101"
       d="m 182.16111,45.435972 c 3.06683,3.945519 6.25053,7.794752 9.51122,11.581064 5.20454,5.836295 10.63933,11.466853 16.15597,17.007644 4.86231,4.868052 10.00714,9.439952 15.17334,13.979895 3.56608,2.946667 6.66064,6.380011 9.62948,9.910572 1.89842,2.290303 3.76986,4.606753 5.8592,6.727793 0.51934,0.50728 1.05027,1.00396 1.61771,1.45728 0.55361,0.44103 1.17733,-0.34189 0.62372,-0.78293 v 0 c -0.53744,-0.42675 -1.0362,-0.89964 -1.52853,-1.37704 -2.0722,-2.10092 -3.92256,-4.40107 -5.80599,-6.669369 -3.00144,-3.56879 -6.13106,-7.038313 -9.73482,-10.018226 C 218.51288,82.727402 213.38438,78.170597 208.53765,73.318401 203.03783,67.794875 197.62,62.181488 192.43082,56.363814 189.14415,52.547675 185.9486,48.658417 182.8375,44.69807 c -0.52177,-0.478279 -1.19816,0.259623 -0.67639,0.737902 z" />
    <path
       style="fill:#000000;fill-opacity:1;stroke:#000000;stroke-width:1.065;stroke-opacity:1"
       id="path102"
       d="m 225.84648,102.44025 c 2.30901,0.15778 4.6151,0.34641 6.92059,0.5491 2.48805,0.20792 4.97767,0.39585 7.46488,0.6138 1.21711,0.143 1.60201,0.10815 1.77779,-1.26304 0.11772,-2.09548 0.2959,-4.185338 0.51674,-6.272326 0.0334,-0.29948 0.0668,-0.598956 0.10026,-0.898435 0.0785,-0.703446 -0.91632,-0.814465 -0.99482,-0.111017 v 0 c -0.0336,0.301379 -0.0673,0.602758 -0.10089,0.904137 -0.22028,2.082596 -0.40062,4.168001 -0.51526,6.259281 -0.0408,0.38257 -0.13337,0.42785 0.18762,0.42234 0.0402,-7.9e-4 -0.0787,0.0198 -0.11888,0.0202 -0.16028,0.001 -0.66052,-0.0489 -0.76518,-0.0583 -2.48712,-0.21793 -4.97664,-0.40594 -7.4646,-0.61377 -2.30449,-0.2026 -4.60958,-0.39147 -6.91763,-0.54884 -0.7049,-0.0641 -0.79553,0.93281 -0.0906,0.99689 z" />
    <path
       style="fill:#000000;fill-opacity:1;stroke:#000000;stroke-width:1.065;stroke-opacity:1"
       id="path103"
       d="m 45.33312,108.94339 c 2.79,-1.23414 4.707996,-3.75911 6.583045,-6.05953 4.043424,-5.401207 8.185626,-10.726144 12.361876,-16.024881 4.671097,-6.208998 9.573411,-12.231552 14.577192,-18.173623 3.177945,-3.695803 6.311297,-7.43019 9.499089,-11.117476 1.807991,-2.134664 3.780875,-4.111943 5.896134,-5.939489 1.44527,-1.196628 2.97765,-2.280033 4.513077,-3.356065 0.24044,-0.168814 0.480793,-0.337761 0.720241,-0.507981 0.576896,-0.410112 -0.0031,-1.225966 -0.579988,-0.815853 v 0 c -0.237612,0.168923 -0.476136,0.336563 -0.714732,0.504092 -1.563145,1.095462 -3.122777,2.199055 -4.593172,3.418485 -2.151182,1.860047 -4.159559,3.870383 -5.99881,6.042155 -3.190537,3.690641 -6.32686,7.428182 -9.507522,11.127359 -5.010708,5.950362 -9.920002,11.981201 -14.597681,18.198769 -4.172945,5.294555 -8.312526,10.614823 -12.351893,16.012418 -1.772402,2.17855 -3.578138,4.59922 -6.214536,5.7774 -0.646451,0.28827 -0.238771,1.20249 0.40768,0.91422 z" />
    <path
       style="fill:#000000;fill-opacity:1;stroke:#000000;stroke-width:1.065;stroke-opacity:1"
       id="path104"
       d="m 83.036716,44.034548 c 2.87574,1.204905 5.903275,2.027645 8.899739,2.874825 2.777961,0.768421 5.589775,1.410843 8.424505,1.930657 0.28479,0.140266 0.67949,0.02519 0.96219,0.182192 0.0116,0.0065 -0.0305,0.0086 -0.0336,0.02151 -0.01,0.03947 -0.0112,0.08246 -0.001,0.121865 0.0333,0.132955 0.0863,0.260159 0.12947,0.390239 0.58931,2.252602 0.76826,4.587092 0.95594,6.900317 0.0171,0.322123 0.0343,0.644242 0.0515,0.966364 0.0378,0.706806 1.03735,0.653386 0.99957,-0.05342 v 0 c -0.0178,-0.331311 -0.0355,-0.66262 -0.0533,-0.993931 -0.19452,-2.395186 -0.38128,-4.813377 -1.00623,-7.14244 -0.41996,-1.205725 -0.66369,-1.211376 -1.8236,-1.377278 -2.803868,-0.513869 -5.584966,-1.149567 -8.332699,-1.909315 -2.938076,-0.830477 -5.905497,-1.637999 -8.729059,-2.809222 -0.634733,-0.313235 -1.077714,0.584409 -0.442984,0.897647 z" />
    <path
       style="fill:#000000;fill-opacity:1;stroke:#000000;stroke-width:1.065;stroke-opacity:1"
       id="path105"
       d="m 116.60898,112.17986 c 2.3173,-4.52222 5.01036,-8.84522 7.64948,-13.184377 3.69778,-6.086906 7.87527,-11.865946 12.31065,-17.432554 3.56755,-4.264518 7.0913,-8.558493 10.43218,-13.003541 2.43578,-3.302227 4.74492,-6.694972 7.06225,-10.080567 1.73925,-2.610201 3.66466,-5.08586 5.63445,-7.523863 0.86039,-1.088041 1.72924,-2.169538 2.58486,-3.261344 0.30722,-0.40308 0.28908,-0.157814 -0.69743,-0.376944 0.0675,0.704591 1.06391,0.609171 0.99644,-0.09542 v 0 c -0.88531,-0.408631 -0.72097,-0.626917 -1.08692,-0.14505 -0.85246,1.087966 -1.7184,2.165437 -2.57557,3.249676 -1.98638,2.45863 -3.92761,4.95554 -5.68186,7.587551 -2.30899,3.373406 -4.60971,6.754003 -7.03642,10.04456 -3.33503,4.437671 -6.8539,8.723471 -10.41489,12.981193 -4.46116,5.599951 -8.66354,11.413019 -12.38298,17.536139 -2.66199,4.376831 -5.38011,8.736941 -7.71074,13.302011 -0.28463,0.64806 0.63187,1.05059 0.9165,0.40253 z" />
    <path
       style="fill:#000000;fill-opacity:1;stroke:#000000;stroke-width:1.065;stroke-opacity:1"
       id="path106"
       d="m 149.77469,49.653549 c 2.77631,-1.101749 5.68125,-1.829763 8.57123,-2.562473 1.27516,-0.312103 2.5566,-0.598133 3.84352,-0.857372 0.49948,-0.100616 0.99568,-0.274908 1.48294,-0.07885 0.6188,1.589302 0.7941,3.314655 1.06148,4.989872 0.40398,2.467126 0.82609,4.933379 1.38587,7.370652 0.04,0.163398 0.0799,0.326797 0.11985,0.490196 0.16819,0.687541 1.14052,0.449694 0.97234,-0.23785 v 0 c -0.0389,-0.158845 -0.0777,-0.317691 -0.11662,-0.476536 -0.55534,-2.415146 -0.97196,-4.859522 -1.37295,-7.304249 -0.19121,-1.197782 -0.48914,-4.31392 -1.22421,-5.279511 -0.15333,-0.201422 -0.37104,-0.344464 -0.55656,-0.516697 -0.19021,-0.04338 -0.37605,-0.116086 -0.57064,-0.130151 -0.39914,-0.02885 -1.01732,0.11893 -1.38403,0.192831 -1.30148,0.262284 -2.59744,0.551611 -3.88701,0.867375 -2.9316,0.743413 -5.87775,1.483757 -8.69378,2.602093 -0.65809,0.26062 -0.28951,1.191294 0.36857,0.930674 z" />
    <path
       style="fill:#000000;fill-opacity:1;stroke:#000000;stroke-width:1.065;stroke-opacity:1"
       id="path107"
       d="m 188.05491,116.18546 c 1.61923,-2.7176 3.56165,-5.23392 5.42402,-7.78744 3.70093,-4.9458 7.54366,-9.783619 11.40041,-14.608243 3.46009,-4.272013 6.63748,-8.761024 9.85234,-13.217538 2.52651,-3.552431 5.16926,-7.019169 7.80192,-10.492873 1.57753,-2.101678 3.16853,-4.193233 4.72444,-6.311018 0.85709,-1.151554 1.64864,-2.349612 2.48293,-3.517316 0.67214,-0.916003 1.38638,-1.800185 2.11442,-2.672082 0.68437,-0.737698 1.29453,-1.536647 1.90744,-2.333112 0.7814,-0.994045 1.6534,-1.913879 2.52432,-2.829234 0.29553,-0.429554 1.02201,-0.751523 1.11143,-1.317784 0.0273,-0.172723 -0.0327,-0.3482 -0.049,-0.522298 -0.19801,-0.679556 -1.15904,-0.399534 -0.96104,0.280021 v 0 c 0.0241,-0.03582 0.13272,-0.107582 0.10703,-0.0729 -0.26051,0.351677 -0.67176,0.591902 -0.93364,0.943012 -0.89485,0.940748 -1.79033,1.886437 -2.59238,2.908708 -0.60483,0.785979 -1.20679,1.574377 -1.88253,2.302044 -0.74407,0.891294 -1.47406,1.795137 -2.16058,2.731807 -0.83141,1.164286 -1.62112,2.358157 -2.47508,3.50647 -1.55294,2.113791 -3.141,4.201332 -4.71551,6.299063 -2.63741,3.479977 -5.28484,6.953048 -7.81596,10.511858 -3.20521,4.443143 -6.37273,8.918932 -9.82242,13.178142 -3.86594,4.836162 -7.71783,9.685563 -11.42727,14.643423 -1.91894,2.63111 -3.94412,5.21736 -5.56088,8.04894 -0.23218,0.66865 0.71343,0.997 0.94561,0.32835 z" />
    <path
       style="fill:#ffffff;fill-opacity:1;stroke:#000000;stroke-width:1.065;stroke-opacity:1"
       id="path108"
       d="m 225.29481,49.161919 c 2.0257,-0.251815 4.05389,-0.466699 6.08975,-0.619011 1.30799,-0.07684 2.61275,-0.19535 3.91733,-0.314902 0.0431,-0.03596 1.05445,-0.04161 0.65335,-0.06559 -0.0681,-0.04021 -0.12611,-0.108844 -0.20432,-0.120636 -0.01,-0.0016 0.0418,0.190912 0.0866,0.385648 0.19517,0.847836 0.38908,1.694384 0.59748,2.539204 0.75373,2.847652 1.62698,5.661583 2.46168,8.48605 0.13969,0.667044 0.29357,0.489738 0.0556,0.702096 -0.18793,0.68241 0.77714,0.948187 0.96507,0.265776 v 0 c 0.13132,-0.780539 0.12955,-0.36286 -0.0607,-1.251572 -0.83044,-2.809925 -1.69904,-5.60941 -2.44979,-8.44216 -0.30566,-1.238327 -0.18935,-0.741307 -0.44552,-1.86775 -0.0734,-0.322646 -0.13883,-1.034052 -0.35772,-1.341575 -0.0837,-0.11757 -0.20909,-0.198961 -0.31364,-0.298442 -0.36056,-0.07082 -0.71391,-0.02585 -1.07946,0.01212 -1.29904,0.119044 -2.59826,0.237098 -3.9007,0.313515 -2.03098,0.152115 -4.05481,0.363435 -6.07532,0.618038 -0.70653,0.04263 -0.64624,1.041818 0.0603,0.999183 z" />
  </g>
</svg>
