<?xml version="1.0" encoding="UTF-8" standalone="no"?>
<!-- Created with Inkscape (http://www.inkscape.org/) -->

<svg
   width="333.82532mm"
   height="252.80241mm"
   viewBox="0 0 333.82532 252.80241"
   version="1.1"
   id="svg1"
   inkscape:export-filename="369-1.svg"
   inkscape:export-xdpi="96"
   inkscape:export-ydpi="96"
   xmlns:inkscape="http://www.inkscape.org/namespaces/inkscape"
   xmlns:sodipodi="http://sodipodi.sourceforge.net/DTD/sodipodi-0.dtd"
   xmlns="http://www.w3.org/2000/svg"
   xmlns:svg="http://www.w3.org/2000/svg">
  <sodipodi:namedview
     id="namedview1"
     pagecolor="#ffffff"
     bordercolor="#000000"
     borderopacity="0.25"
     inkscape:showpageshadow="2"
     inkscape:pageopacity="0.0"
     inkscape:pagecheckerboard="0"
     inkscape:deskcolor="#d1d1d1"
     inkscape:document-units="mm" />
  <defs
     id="defs1" />
  <g
     inkscape:groupmode="layer"
     id="layer2"
     inkscape:label="图层 2"
     transform="translate(26.2991,17.315201)">
    <rect
       style="fill:#ffffff;fill-opacity:1;stroke:#ffffff;stroke-width:1.065;stroke-opacity:1"
       id="rect108"
       width="332.76031"
       height="251.73743"
       x="-25.7666"
       y="-16.7827"
       ry="31.27058" />
  </g>
  <g
     inkscape:groupmode="layer"
     id="layer3"
     inkscape:label="图层 3"
     transform="translate(26.2991,17.315201)">
    <path
       style="fill:#000000;fill-opacity:1;stroke:#000000;stroke-width:1.065;stroke-opacity:1"
       id="path108"
       d="m 36.67851,35.239272 c -0.15408,4.881036 -0.03178,9.766911 -0.02992,14.649791 -0.08374,8.826629 -0.550603,17.643215 -1.055891,26.453845 -0.497599,8.14133 -0.758809,16.292455 -0.879592,24.447172 -0.07735,5.93664 -0.06984,11.87327 0.177149,17.80565 0.196046,4.30011 0.64819,8.58172 1.211054,12.84748 0.303305,2.31491 0.62683,4.62693 1.007292,6.93049 0.01341,0.12334 0.296157,1.60756 0.312688,1.6068 0.359301,-0.0165 0.659897,-0.28639 0.989846,-0.42958 0.0038,-0.70781 -0.997241,-0.7131 -1.000985,-0.005 v 0 c 0.328821,0.0699 0.653888,0.25861 0.986464,0.20963 0.116184,-0.0171 -0.05574,-0.22822 -0.07963,-0.3432 -0.07349,-0.35383 -0.159933,-0.85882 -0.220768,-1.20148 -0.378786,-2.29285 -0.700543,-4.59417 -1.002515,-6.89832 -0.559114,-4.23612 -1.008395,-8.48795 -1.203319,-12.75819 -0.246536,-5.91354 -0.253177,-11.83136 -0.176387,-17.74916 0.120507,-8.140542 0.381285,-16.277498 0.878056,-24.404678 0.506368,-8.829841 0.974053,-17.665662 1.057535,-26.511543 -0.0019,-4.862658 -0.122844,-9.728242 0.0281,-14.589109 0.04264,-0.706527 -0.956545,-0.766826 -0.99918,-0.0603 z" />
    <path
       style="fill:#000000;fill-opacity:1;stroke:#000000;stroke-width:1.065;stroke-opacity:1"
       id="path109"
       d="m 36.343838,34.600459 c 1.812026,0.47802 3.685109,0.654566 5.545421,0.829143 3.364986,0.296085 6.740792,-0.04152 10.100159,-0.261326 2.378519,-0.239795 4.748747,-0.113469 7.11137,0.189973 2.116061,0.31635 4.227224,0.655326 6.353699,0.895395 3.072831,0.304586 6.159312,0.45593 9.246259,0.494949 3.405968,-0.02799 6.806146,-0.257213 10.209895,-0.374822 3.051942,-0.100365 6.105136,-0.142203 9.158327,-0.09406 2.583386,0.09584 5.164936,0.223173 7.749342,0.291645 3.34141,0.08187 6.68354,-0.03941 10.02319,-0.139893 4.15106,-0.168122 8.29639,-0.218869 12.44197,0.06263 4.31492,0.362014 8.61423,0.881848 12.91928,1.341731 4.07754,0.461201 8.16603,0.792472 12.26467,0.984306 4.25694,0.110813 8.51888,0.0024 12.7702,-0.227505 4.61651,-0.248811 9.19793,-0.855821 13.77366,-1.489175 6.06319,-0.875858 12.16314,-1.462871 18.27068,-1.919947 4.02606,-0.290978 8.06105,-0.404185 12.09406,-0.546822 2.49911,-0.139134 4.99996,-0.224626 7.50192,-0.290235 2.5661,-0.07098 5.13336,-0.06511 7.70018,-0.06359 3.00169,-0.116988 5.97574,0.265946 8.92767,0.763479 1.5042,0.285017 3.00755,0.566259 4.53539,0.681064 1.4673,0.108789 2.93082,0.02172 4.3877,-0.157551 2.39518,-0.337561 4.7691,-0.804233 7.12612,-1.34415 2.19214,-0.580742 4.36704,-1.184211 6.60577,-1.555628 1.80082,-0.265277 3.62395,-0.158737 5.43343,-0.0674 1.43989,0.08926 2.88239,0.106584 4.32397,0.148627 1.08428,0.01572 2.14839,0.217746 3.20795,0.427789 0.19901,0.04565 0.40137,0.0748 0.60108,0.116916 0.0819,0.01728 0.29913,0.135721 0.23886,0.0776 -0.0791,-0.07635 -0.16605,-0.144246 -0.24908,-0.216368 0.21318,0.674954 1.16771,0.373501 0.95454,-0.301453 v 0 c -0.10242,-0.13352 -0.18325,-0.286785 -0.30723,-0.400561 -0.25088,-0.230222 -0.75536,-0.124325 -1.04357,-0.258035 -1.11406,-0.220776 -2.23354,-0.429289 -3.3734,-0.446463 -1.43449,-0.04173 -2.86988,-0.05898 -4.30269,-0.14778 -1.8812,-0.09485 -3.77626,-0.200687 -5.64792,0.07966 -2.25852,0.375769 -4.45441,0.978247 -6.66529,1.567381 -2.3237,0.532646 -4.66413,0.992587 -7.02536,1.326428 -1.39127,0.172873 -2.78886,0.255818 -4.19034,0.152765 -1.49721,-0.111077 -2.96942,-0.393184 -4.44366,-0.669938 -3.00665,-0.506135 -6.03625,-0.89426 -9.09335,-0.777383 -2.57577,-0.0016 -5.15196,-0.0073 -7.72701,0.06394 -2.505,0.0657 -5.00891,0.151127 -7.51106,0.290517 -4.04613,0.143124 -8.09425,0.256855 -12.1334,0.54899 -6.12844,0.458806 -12.24925,1.0478 -18.33321,1.926606 -4.54812,0.629557 -9.10181,1.233738 -13.69049,1.481185 -4.21772,0.228391 -8.44602,0.335698 -12.66935,0.227134 -4.07876,-0.190627 -8.14736,-0.520854 -12.20511,-0.979734 -4.31793,-0.461237 -8.63008,-0.982795 -12.95797,-1.345107 -4.1782,-0.282292 -8.35603,-0.235064 -12.53971,-0.06446 -3.32079,0.09992 -6.64405,0.220869 -9.96659,0.13979 -2.587988,-0.06853 -5.173091,-0.196638 -7.760086,-0.29187 -3.069971,-0.04824 -6.139948,-0.0065 -9.208659,0.09453 -3.388053,0.117126 -6.772561,0.344575 -10.162776,0.374303 -3.053664,-0.03795 -6.106839,-0.188447 -9.146603,-0.48872 -2.121471,-0.23908 -4.227346,-0.579125 -6.338538,-0.893566 -2.426481,-0.310878 -4.861452,-0.439889 -7.304088,-0.195972 -3.306479,0.216347 -6.62922,0.551646 -9.941364,0.263559 -1.804019,-0.16897 -3.620989,-0.337396 -5.378629,-0.799094 -0.68348,-0.18401 -0.943706,0.782574 -0.260229,0.966581 z" />
    <path
       style="fill:#000000;fill-opacity:1;stroke:#000000;stroke-width:1.065;stroke-opacity:1"
       id="path110"
       d="m 267.04245,33.97083 c 0.63733,2.306571 0.3643,4.759886 0.2032,7.113275 -0.36878,3.73171 -0.63426,7.46986 -0.82246,11.214629 -0.16005,3.284088 -0.49281,6.555677 -0.69048,9.837492 -0.14677,3.418527 -0.18799,6.840143 -0.30504,10.259713 -0.17878,3.929787 -0.19407,7.861617 -0.0669,11.792648 0.15277,3.118348 0.31972,6.235237 0.40952,9.356217 0.0897,3.055321 0.12801,6.111714 0.15076,9.168156 0.0164,2.85223 0.0154,5.70452 0.0156,8.55678 -0.01,2.73034 -0.0108,5.46003 0.073,8.18926 0.13343,2.74467 0.52456,5.4674 0.81012,8.19854 0.24273,2.83809 0.40918,5.6799 0.73459,8.5104 0.34184,2.36658 0.74576,4.7201 0.95822,7.10306 0.16809,2.42302 0.1651,4.85427 0.17396,7.28197 0.004,2.68333 -0.0103,5.36659 0.0175,8.04982 0.019,2.48777 0.0983,4.97446 0.19357,7.46029 0.057,2.9608 0.42461,5.89721 1.00042,8.79831 0.19931,0.90819 0.21251,1.00065 0.42066,1.8406 0.0495,0.19982 0.11538,0.39586 0.15436,0.59801 0.0127,0.0655 -0.0405,0.25371 0,0.20025 0.088,-0.1176 0.10551,-0.27411 0.15825,-0.41116 -0.62823,0.32606 -0.16712,1.21452 0.46111,0.88846 v 0 c 0.12682,-0.17548 0.30395,-0.32391 0.38042,-0.52646 0.1533,-0.40598 -0.64574,-2.31741 -0.59251,-2.78476 -0.5666,-2.84925 -0.92646,-5.7335 -0.98195,-8.64159 -0.0949,-2.47652 -0.17388,-4.95389 -0.19288,-7.43233 -0.0278,-2.68098 -0.0132,-5.362 -0.0175,-8.04309 -0.009,-2.45619 -0.006,-4.91601 -0.17791,-7.36738 -0.21402,-2.39134 -0.61494,-4.75382 -0.9608,-7.12841 -0.3255,-2.82701 -0.48946,-5.66559 -0.73346,-8.50009 -0.28307,-2.70679 -0.67034,-5.40524 -0.80518,-8.12523 -0.0837,-2.71897 -0.082,-5.43841 -0.0725,-8.15849 -8e-5,-2.85475 0,-5.70951 -0.0156,-8.56422 -0.0228,-3.063553 -0.0612,-6.127063 -0.15116,-9.189498 -0.0899,-3.122179 -0.25635,-6.240296 -0.4096,-9.359826 -0.12679,-3.908817 -0.11097,-7.818419 0.0668,-11.725997 0.1167,-3.410932 0.15827,-6.823877 0.30382,-10.233795 0.19769,-3.285128 0.53149,-6.559973 0.69101,-9.847413 0.18785,-3.73878 0.45352,-7.470865 0.8214,-11.196624 0.17039,-2.498466 0.4482,-5.101148 -0.26789,-7.54162 -0.25464,-0.660427 -1.18862,-0.300326 -0.93398,0.360103 z" />
    <path
       style="fill:#000000;fill-opacity:1;stroke:#000000;stroke-width:1.065;stroke-opacity:1"
       id="path111"
       d="m 37.378243,138.82559 c -0.03837,2.07012 -0.20084,4.1362 -0.370295,6.19904 -0.194128,2.21952 -0.554363,4.41898 -0.807837,6.63165 -0.23731,2.4303 -0.451006,4.86263 -0.596961,7.30019 -0.104801,1.82679 -0.158813,3.65574 -0.185851,5.48515 -0.0163,1.02232 0.02241,2.04415 0.05483,3.06573 0.02424,0.7288 0.02275,1.45805 0.03164,2.1871 0.01127,0.69279 0.04361,1.38498 0.07273,2.07718 0.03665,0.12224 -0.05261,0.59384 0.0622,0.0482 -0.380074,0.59712 0.464375,1.13462 0.844447,0.53751 v 0 c 0.08107,-0.25439 0.125425,-0.37643 0.09347,-0.62776 -0.0287,-0.68226 -0.06065,-1.36451 -0.07192,-2.04734 -0.009,-0.73555 -0.0075,-1.47131 -0.03207,-2.20661 -0.03192,-1.00607 -0.07035,-2.01239 -0.05443,-3.01919 0.02678,-1.8144 0.08029,-3.62834 0.184171,-5.44014 0.144759,-2.41951 0.35715,-4.83378 0.592257,-7.24613 0.254386,-2.22332 0.617397,-4.43324 0.810971,-6.66358 0.171289,-2.08613 0.335264,-4.17554 0.373584,-6.26906 0.0084,-0.70776 -0.992502,-0.71968 -1.000929,-0.0119 z" />
    <path
       style="fill:#000000;fill-opacity:1;stroke:#000000;stroke-width:1.065;stroke-opacity:1"
       id="path112"
       d="m 34.52318,172.28707 c 1.547759,0.2523 3.116704,0.32272 4.677076,0.45702 1.644507,0.0881 3.213214,0.54766 4.75361,1.09687 1.569133,0.61606 3.19986,1.03331 4.844637,1.38644 1.561367,0.32455 3.144732,0.52335 4.732107,0.66376 1.448999,0.0473 2.924882,0.26207 4.374587,0.0976 0.386823,-0.0439 0.767934,-0.12849 1.151903,-0.19273 2.08779,-0.4612 4.073443,-1.28531 6.161434,-1.75254 1.597798,-0.35754 2.997269,-0.53008 4.617286,-0.76653 4.389374,-0.51603 8.815948,-0.56396 13.230156,-0.55985 2.855079,0.0492 5.704067,0.25001 8.557583,0.34907 3.292739,0.0391 6.581862,0.1866 9.870091,0.354 2.71184,0.0963 5.41894,0.24964 8.11505,0.55854 1.27809,0.14723 2.5572,0.29979 3.84452,0.32302 0.93467,0.0228 1.86053,-0.12076 2.7869,-0.2215 1.2874,-0.11028 2.58221,-0.13851 3.87391,-0.12591 2.42214,0.24508 4.83232,0.60841 7.23849,0.97687 2.49612,0.41446 4.9784,0.87557 7.50704,1.0243 1.6508,0.055 3.3022,-0.0102 4.95279,-0.042 2.02457,-0.0317 4.04958,-0.0486 6.07416,-0.0157 3.13321,0.0532 6.24652,0.44597 9.35604,0.802 2.56467,0.34841 5.13471,0.63134 7.71579,0.82194 2.50345,0.10091 4.99953,0.22931 7.49321,0.47889 1.97627,0.22889 3.96125,0.35961 5.9489,0.42967 1.94886,0.0515 3.89868,0.0399 5.84798,0.031 1.98622,-0.035 3.97137,0.0435 5.95638,0.0983 1.45715,0.0492 2.91462,-0.003 4.36899,-0.0927 1.60726,-0.18176 3.21491,-0.32281 4.8326,-0.35112 1.4219,0.0431 2.83538,0.21231 4.25526,0.29573 1.46786,0.1118 2.92979,0.068 4.39219,-0.0798 2.37722,-0.44088 4.7743,-0.46415 7.18086,-0.36638 3.0173,0.2433 6.03274,0.50355 9.05304,0.70904 2.73646,0.19728 5.47932,0.22986 8.22154,0.24078 2.3573,-0.0217 4.71121,-0.0189 7.0646,0.1249 2.5098,0.24872 5.01697,0.51867 7.5316,0.71604 2.2181,0.15165 4.44158,0.19082 6.66329,0.25713 1.58638,0.0482 3.17256,0.0943 4.75903,0.0365 1.60134,-0.10712 3.20309,-0.198 4.80735,-0.24566 1.62509,-0.0398 3.25076,-0.043 4.87623,-0.0456 1.0323,0.008 2.06423,-0.004 3.0961,-0.0318 0.62839,-0.0183 1.25706,-0.0184 1.88553,-0.0305 0.45532,-0.0129 0.90797,-0.066 1.3598,-0.12034 0.089,-0.0113 0.17827,-0.0209 0.26752,-0.0303 0.70413,-0.0721 0.60216,-1.0679 -0.10197,-0.99579 v 0 c -0.0951,0.01 -0.19016,0.0205 -0.28506,0.0323 -0.41863,0.0504 -0.83797,0.10053 -1.25979,0.11337 -0.63095,0.0124 -1.26214,0.0121 -1.89299,0.0307 -1.02343,0.0276 -2.0469,0.0391 -3.07073,0.0314 -1.63487,0.003 -3.26993,0.006 -4.9044,0.046 -1.60658,0.0479 -3.21074,0.13783 -4.81435,0.24589 -1.56423,0.058 -3.12825,0.01 -4.69241,-0.0367 -2.20555,-0.0658 -4.41285,-0.10461 -6.61485,-0.25452 -2.52043,-0.19766 -5.03319,-0.46972 -7.54893,-0.71724 -2.37238,-0.14458 -4.74528,-0.14923 -7.12159,-0.12675 -2.72088,-0.0108 -5.4424,-0.0427 -8.15758,-0.23849 -3.02947,-0.20607 -6.05396,-0.46824 -9.08056,-0.71052 -2.45325,-0.0986 -4.89878,-0.0768 -7.32235,0.37068 -1.40931,0.14362 -2.81781,0.18467 -4.23252,0.0764 -1.44529,-0.0846 -2.88396,-0.26018 -4.33166,-0.2973 -1.63219,0.0295 -3.25486,0.16697 -4.87637,0.35287 -1.42466,0.0879 -2.8524,0.13937 -4.2798,0.0912 -1.99574,-0.0551 -3.99162,-0.13383 -5.98857,-0.0987 -1.93603,0.009 -3.87259,0.0205 -5.80819,-0.0303 -1.96615,-0.0691 -3.92962,-0.19871 -5.88447,-0.42532 -2.50231,-0.25025 -5.00704,-0.38089 -7.51917,-0.48115 -2.56769,-0.18946 -5.12425,-0.47169 -7.67561,-0.81815 -3.14195,-0.35973 -6.2878,-0.75541 -9.45371,-0.80837 -2.03639,-0.0328 -4.07321,-0.0164 -6.10959,0.0158 -1.62473,0.0312 -3.25022,0.0953 -4.87519,0.0435 -2.49754,-0.14486 -4.94819,-0.60871 -7.4139,-1.01447 -2.45294,-0.37555 -4.91013,-0.74982 -7.38052,-0.98835 -1.33101,-0.0122 -2.66519,0.0161 -3.99164,0.13173 -0.88473,0.0963 -1.76893,0.23543 -2.66152,0.21578 -1.255,-0.0202 -2.50169,-0.17605 -3.74775,-0.31667 -2.71708,-0.31105 -5.44514,-0.46699 -8.17806,-0.56374 -3.293613,-0.16767 -6.588133,-0.3155 -9.886268,-0.3547 -2.864776,-0.0994 -5.724988,-0.30171 -8.591383,-0.34967 -4.462904,-0.004 -8.93831,0.0456 -13.375807,0.57037 -1.702781,0.24912 -3.052778,0.41359 -4.732885,0.79046 -2.057196,0.46145 -4.015684,1.26509 -6.069414,1.73234 -0.343646,0.0599 -0.684472,0.13913 -1.030939,0.1796 -1.40413,0.16406 -2.835544,-0.0527 -4.239262,-0.0949 -1.546437,-0.13607 -3.088905,-0.33002 -4.610076,-0.64536 -1.602248,-0.34357 -3.190756,-0.74934 -4.718831,-1.35071 -1.621292,-0.57669 -3.273946,-1.05589 -5.003667,-1.1512 -1.531073,-0.13151 -3.070485,-0.20075 -4.589492,-0.44558 -0.697122,-0.12257 -0.870458,0.86331 -0.173336,0.98588 z" />
    <path
       style="fill:#000000;fill-opacity:1;stroke:#000000;stroke-width:1.065;stroke-opacity:1"
       id="path113"
       d="m 76.596871,39.3442 c 0.19013,4.572643 -0.09277,9.157311 -0.228462,13.730062 -0.172059,6.134071 -0.218985,12.270664 -0.228515,18.40684 -7.94e-4,5.519301 0.04332,11.038467 0.07056,16.557673 0.04888,5.43602 0.227848,10.871028 0.489656,16.300755 0.266904,4.97542 1.119587,9.88773 1.900047,14.80049 0.667105,3.87197 1.06448,7.78081 1.39927,11.69305 0.253053,3.02163 0.433298,6.04906 0.724538,9.06741 0.236445,2.06846 0.589732,4.12001 0.838282,6.18699 0.211484,1.75454 0.342561,3.51624 0.424566,5.28106 0.05819,1.66529 0.172688,3.32694 0.33433,4.98512 0.183576,1.59841 0.307004,3.2014 0.376521,4.80852 0.03968,1.39027 0.06593,2.78096 0.09019,4.1716 -0.0021,0.75883 0.01812,1.51497 0.144923,2.26395 0.0936,0.49347 0.227492,0.9778 0.345205,1.46573 0.09266,0.33092 0.131662,0.67582 0.239866,1.00187 0.349681,-0.11163 0.699362,-0.22326 1.049046,-0.33489 0.226468,-0.67061 -0.721913,-0.99088 -0.94838,-0.32027 v 0 c 0.278302,0.0997 0.556604,0.19946 0.834906,0.2992 -0.06912,-0.26544 -0.1275,-0.59574 -0.202385,-0.88079 -0.112578,-0.46613 -0.240075,-0.92891 -0.331634,-1.39989 -0.121359,-0.69839 -0.128847,-1.40478 -0.130699,-2.11237 -0.02442,-1.39926 -0.05075,-2.79858 -0.09098,-4.19746 -0.07046,-1.62508 -0.194746,-3.24606 -0.380309,-4.86236 -0.160144,-1.64132 -0.273129,-3.28609 -0.330684,-4.93447 -0.08327,-1.78922 -0.216212,-3.57531 -0.430652,-5.35412 -0.247875,-2.05918 -0.598225,-4.1032 -0.835747,-6.16361 -0.291193,-3.01471 -0.470292,-6.03861 -0.723551,-9.05658 -0.336926,-3.93623 -0.737164,-7.86898 -1.408022,-11.76474 -0.774735,-4.87673 -1.622605,-9.75283 -1.888813,-14.69167 -0.261268,-5.415295 -0.439563,-10.835883 -0.488506,-16.257468 -0.02723,-5.517038 -0.0713,-11.03404 -0.07055,-16.551176 0.0095,-6.126795 0.05632,-12.254008 0.228079,-18.378702 0.137265,-4.626001 0.428828,-9.265129 0.220307,-13.890625 -0.09254,-0.701738 -1.084947,-0.570868 -0.992407,0.130871 z" />
    <path
       style="fill:#000000;fill-opacity:1;stroke:#000000;stroke-width:1.065;stroke-opacity:1"
       id="path114"
       d="m 119.78624,36.694893 c 0.14884,2.958801 -0.0392,5.92842 -0.16289,8.885716 -0.31369,6.48077 -0.62486,12.961617 -0.91636,19.443433 -0.34422,7.792958 -1.17379,15.551602 -1.8203,23.322412 -0.53464,5.520779 -0.49224,11.065737 -0.41386,16.603896 0.0472,3.84227 -0.1636,7.68074 -0.28798,11.51969 -0.10565,3.28261 0.13508,6.5569 0.48396,9.81789 0.31915,2.71021 0.63754,5.42047 1.00836,8.12416 0.42577,2.7167 0.81972,5.43666 1.13509,8.16843 0.22427,2.35248 0.42882,4.70666 0.65688,7.05885 0.18537,2.31219 0.44833,4.61675 0.70739,6.92153 0.23286,2.03924 0.47825,4.07644 0.66437,6.12064 0.14962,1.56131 0.26326,3.12569 0.33228,4.69258 0.0211,0.53917 0.0341,1.07868 0.0347,1.61827 -0.002,0.17775 -0.003,0.35549 -0.003,0.53325 0.022,0.63955 -0.0408,1.27301 -0.13598,1.90428 0.0173,0.22566 -0.13338,0.4591 -0.12568,0.68237 0.002,0.047 -6e-5,-0.10602 0.0358,-0.13641 0.2557,-0.21669 0.26508,-0.18817 0.49647,-0.17166 -0.50461,-0.49636 -1.20657,0.21726 -0.70196,0.71362 v 0 c 0.13887,0.0893 0.25263,0.24877 0.41662,0.26784 0.76924,0.0894 0.78112,-0.70143 0.86864,-1.20707 0.10171,-0.67977 0.16924,-1.36233 0.14708,-2.05084 2.6e-4,-0.17884 10e-4,-0.35766 0.003,-0.5365 -5.3e-4,-0.55392 -0.0139,-1.10775 -0.0357,-1.66124 -0.0698,-1.58248 -0.18429,-3.16245 -0.33543,-4.73928 -0.18691,-2.0512 -0.43264,-4.09545 -0.6665,-6.14166 -0.2585,-2.29971 -0.52091,-4.59921 -0.7058,-6.90632 -0.22865,-2.35826 -0.43346,-4.71855 -0.65882,-7.07707 -0.31628,-2.73883 -0.7106,-5.46595 -1.13777,-8.18964 -0.36953,-2.69387 -0.6866,-5.39431 -1.00476,-8.09466 -0.34429,-3.21483 -0.58273,-6.44273 -0.4788,-9.67895 0.12486,-3.85447 0.33636,-7.70846 0.2884,-11.56627 -0.078,-5.505738 -0.12145,-11.018268 0.41053,-16.506737 0.6475,-7.783468 1.47837,-15.554754 1.82273,-23.36043 0.29154,-6.482863 0.6028,-12.964758 0.91649,-19.446579 0.12549,-3.001041 0.3164,-6.014706 0.15975,-9.017158 -0.0634,-0.704972 -1.06035,-0.615352 -0.99698,0.08962 z" />
    <path
       style="fill:#000000;fill-opacity:1;stroke:#000000;stroke-width:1.065;stroke-opacity:1"
       id="path115"
       d="m 173.5247,37.549714 c -0.0588,4.051374 -0.11355,8.100782 -0.27101,12.149899 -0.34222,7.247742 -1.10469,14.467321 -1.71703,21.69546 -0.62485,6.927337 -0.94645,13.875242 -1.14274,20.826235 -0.0901,7.276693 -0.52002,14.537012 -1.10481,21.788412 -0.50604,5.54246 -0.88959,11.09397 -1.09257,16.65569 -0.0972,3.46488 -0.18654,6.93233 1.6e-4,10.39523 0.22729,2.50919 0.32309,5.02514 0.38348,7.54296 0.0696,2.88919 0.26406,5.77221 0.53785,8.64856 0.29362,2.48332 0.57184,4.96812 0.82941,7.45543 0.19357,1.7566 0.29441,3.52079 0.35289,5.28643 0.0326,1.17536 0.0352,2.35125 0.0354,3.52697 0.0359,0.76558 -0.0195,1.51773 -0.16125,2.26903 -0.094,0.49284 -0.22702,0.97694 -0.35486,1.46176 -0.0988,0.37856 -0.2566,0.68829 0.90627,0.10779 0.11775,-0.0588 -0.0303,-0.26151 -0.0407,-0.39271 -0.0226,-0.28648 -0.0389,-0.57343 -0.0584,-0.86015 -0.0483,-0.70617 -1.04692,-0.63795 -0.99868,0.0682 v 0 c 0.0206,0.2994 0.037,0.59911 0.0617,0.8982 0.0128,0.15457 -0.0821,0.38224 0.0506,0.46253 0.95047,0.57508 0.93194,0.40244 1.04704,-0.0287 0.13399,-0.50814 0.2727,-1.01568 0.37076,-1.53232 0.15172,-0.81224 0.21573,-1.62662 0.17843,-2.45386 -2.1e-4,-1.18672 -0.003,-2.37362 -0.036,-3.55997 -0.0594,-1.78899 -0.16167,-3.57651 -0.35766,-5.35637 -0.25729,-2.48457 -0.53492,-4.96666 -0.82859,-7.4472 -0.27172,-2.85277 -0.46456,-5.71217 -0.53364,-8.5777 -0.0607,-2.52781 -0.15642,-5.05383 -0.38465,-7.57298 -0.18613,-3.43268 -0.0944,-6.87004 5.3e-4,-10.3047 0.20225,-5.54706 0.58539,-11.08388 1.09,-16.61172 0.5861,-7.26878 1.01713,-14.54651 1.10765,-21.840622 0.19566,-6.932224 0.51634,-13.861365 1.13956,-20.769988 0.61361,-7.243323 1.3777,-14.478065 1.71985,-21.741084 0.1573,-4.05017 0.21311,-8.10061 0.27114,-12.153045 0.0253,-0.707364 -0.9751,-0.743091 -1.00037,-0.03573 z" />
    <path
       style="fill:#000000;fill-opacity:1;stroke:#000000;stroke-width:1.065;stroke-opacity:1"
       id="path116"
       d="m 219.69544,34.936752 c -0.0557,2.262759 -0.0548,4.526021 -0.10814,6.788812 -0.0777,4.442782 -0.69275,8.84919 -1.18215,13.258807 -0.47949,4.272019 -0.71989,8.561787 -0.84393,12.856925 -0.075,3.872418 -0.17047,7.744661 -0.15511,11.617975 -0.0207,3.757983 0.20171,7.507275 0.48188,11.252602 0.22743,3.249658 0.51596,6.494397 0.77004,9.741907 0.31808,2.99357 0.22807,5.99493 0.0986,8.99467 -0.14423,2.97586 -0.20399,5.95471 -0.2292,8.93367 0.008,2.66 0.27071,5.30809 0.49323,7.95585 0.14966,1.74543 0.16745,3.49781 0.25399,5.2466 0.10358,1.48801 0.16856,2.97799 0.22629,4.46833 0.0571,1.46665 0.18882,2.92856 0.30954,4.39086 0.11064,1.49688 0.24045,2.99217 0.37693,4.48688 0.11031,1.36119 0.29369,2.7146 0.45016,4.07086 0.1254,1.30413 0.33405,2.59692 0.55945,3.88677 0.24716,1.27477 0.44198,2.55806 0.6335,3.84205 0.29655,1.65477 0.44899,3.32454 0.54851,5.00107 0.0792,1.67953 0.0935,3.36108 0.11497,5.04206 0.0302,1.16636 0.0699,2.33234 0.0913,3.49894 0.0274,1.05398 0.11093,2.10551 0.20536,3.15528 0.0619,0.85872 0.21675,1.7035 0.3915,2.54494 0.15032,0.70166 0.31675,1.39947 0.48728,2.09643 0.0805,0.14633 0.071,0.731 0.10154,0.0548 -0.37322,0.60142 0.47732,1.12923 0.85054,0.5278 v 0 c 0.094,-0.39728 0.132,-0.47364 0.0202,-0.82056 -0.16775,-0.68556 -0.33161,-1.37191 -0.47952,-2.06208 -0.16698,-0.80387 -0.31642,-1.61055 -0.37461,-2.43111 -0.0924,-1.02603 -0.17431,-2.05379 -0.2015,-3.08392 -0.0214,-1.16474 -0.0608,-2.32888 -0.0912,-3.49336 -0.0217,-1.69653 -0.0362,-3.39363 -0.11665,-5.08868 -0.10158,-1.706 -0.25671,-3.40535 -0.5577,-5.08933 -0.19274,-1.29222 -0.3889,-2.58374 -0.63749,-3.86672 -0.22211,-1.27072 -0.42796,-2.5443 -0.5511,-3.82916 -0.15559,-1.34837 -0.338,-2.69389 -0.44771,-4.04716 -0.13623,-1.49182 -0.26575,-2.98422 -0.37618,-4.47821 -0.11953,-1.44779 -0.25018,-2.89516 -0.30689,-4.34724 -0.0579,-1.49394 -0.1229,-2.98753 -0.22677,-4.47912 -0.0873,-1.76022 -0.10479,-3.5241 -0.25628,-5.2809 -0.21996,-2.61708 -0.48025,-5.23442 -0.48974,-7.86356 0.0251,-2.96739 0.0846,-5.93469 0.2283,-8.89899 0.13112,-3.04013 0.22018,-6.08204 -0.10076,-9.11591 -0.25407,-3.246359 -0.54239,-6.489965 -0.76978,-9.738483 -0.27846,-3.721809 -0.49996,-7.44752 -0.4791,-11.181923 -0.0156,-3.862353 0.0802,-7.723638 0.1547,-11.585099 0.12311,-4.267901 0.36178,-8.530458 0.83825,-12.775393 0.49255,-4.43847 1.11048,-8.873768 1.18797,-13.345654 0.0531,-2.258304 0.0528,-4.517052 0.10773,-6.775326 0.0262,-0.707329 -0.97412,-0.744379 -1.00031,-0.03705 z" />
    <path
       style="fill:#000000;fill-opacity:1;stroke:#000000;stroke-width:1.065;stroke-opacity:1"
       id="path117"
       d="m 34.750155,74.525004 c 1.793639,0.527934 3.628747,0.884081 5.466575,1.216345 2.966704,0.444902 5.916562,0.992172 8.881509,1.447065 3.277902,0.449677 6.57466,0.750175 9.877351,0.93799 1.7483,0.05951 3.507914,0.146243 5.253167,-0.03148 0.932474,-0.09495 1.990566,-0.28043 2.915232,-0.430303 3.085896,-0.534974 6.198955,-0.887828 9.300713,-1.315923 3.945641,-0.598287 7.922101,-0.895393 11.904606,-1.096857 4.441852,-0.191775 8.88809,-0.202314 13.330082,-0.03055 4.34785,0.241449 8.69275,0.519788 13.0447,0.677749 3.82653,0.118621 7.65569,0.06614 11.4834,0.06465 2.68859,-0.01222 5.37524,0.09371 8.06282,0.144108 3.64357,-0.04776 7.24303,-0.738365 10.84626,-1.223187 2.18651,-0.263332 4.42163,-0.360056 6.59638,0.05762 0.98265,0.188725 1.49689,0.381561 2.45339,0.682742 2.3305,0.912974 4.66665,1.731155 7.13361,2.174557 4.0826,0.583205 8.2134,0.360871 12.31549,0.172712 2.47949,-0.109908 4.95582,-0.276188 7.43343,-0.419483 1.33835,-0.08356 2.65536,0.267139 3.97183,0.465881 2.53721,0.362182 5.09475,0.360513 7.64662,0.206115 2.06883,-0.149069 4.10838,-0.526719 6.13264,-0.963205 1.14947,-0.285885 2.32963,-0.404481 3.50285,-0.546497 2.15578,-0.317081 4.31246,-0.606509 6.48474,-0.782208 1.81622,-0.11783 3.6342,-0.238832 5.45076,-0.08835 1.49787,0.193442 3.00191,0.308559 4.51051,0.367969 1.92532,0.03388 3.85073,-0.09601 5.76991,-0.238818 1.67856,-0.105593 3.32736,-0.430123 4.97713,-0.7366 2.2014,-0.405731 4.43069,-0.57667 6.66567,-0.620959 2.03784,0.02199 4.07363,0.133803 6.11079,0.193839 1.80888,0.01974 3.61337,0.147582 5.41918,0.241485 1.61182,0.0509 3.22116,0.134724 4.83076,0.231066 1.25825,0.04062 2.49855,0.232987 3.73361,0.462635 1.45417,0.277627 2.93127,0.399899 4.4086,0.459748 1.16246,0.0389 2.29538,-0.227333 3.40657,-0.536165 0.31048,-0.08453 0.61664,-0.18343 0.92377,-0.279019 0.008,0.01172 0.13594,0.0077 0.18336,0.0082 0.0201,2.62e-4 0.0802,0.0044 0.0604,7.94e-4 -0.0978,-0.01794 -0.30618,-0.187394 -0.28427,-0.0904 0.0654,0.290063 0.63307,0.659455 0.84196,0.826349 0.9602,0.632513 0.80502,0.749245 1.51714,-0.288427 0.0619,-0.705107 -0.93533,-0.792578 -0.99719,-0.08747 v 0 c 0.14889,-0.0647 0.28803,-0.159677 0.44667,-0.194096 0.0439,-0.0095 0.15449,0.09042 0.11333,0.0726 -0.16122,-0.06978 -0.32036,-0.192397 -0.46138,-0.289615 -0.39402,-0.302792 -0.72809,-0.885778 -1.22622,-0.950677 -0.16475,-0.0016 -0.33197,-0.0082 -0.49223,0.03728 -0.29701,0.09299 -0.59344,0.187944 -0.89372,0.270153 -1.01061,0.281569 -2.04022,0.532976 -3.09798,0.500332 -1.4295,-0.05711 -2.85886,-0.175287 -4.26593,-0.443706 -1.27574,-0.236977 -2.55723,-0.434383 -3.85671,-0.477698 -1.61221,-0.09649 -3.22417,-0.180567 -4.8386,-0.231505 -1.81331,-0.09425 -3.62529,-0.222491 -5.44167,-0.242398 -2.05366,-0.0605 -4.10592,-0.17408 -6.16032,-0.194072 -2.28954,0.04635 -4.57337,0.221449 -6.82845,0.637593 -1.61388,0.299816 -3.22652,0.619289 -4.86862,0.722524 -1.8814,0.140142 -3.7689,0.267989 -5.65633,0.236829 -1.49445,-0.05848 -2.98407,-0.174429 -4.46792,-0.36539 -1.871,-0.152085 -3.74293,-0.037 -5.61344,0.08826 -2.18539,0.177342 -4.35548,0.466219 -6.52421,0.786196 -1.20366,0.145706 -2.41413,0.269184 -3.59357,0.561737 -1.97478,0.425913 -3.96415,0.796173 -5.98239,0.942557 -2.4817,0.151762 -4.96879,0.153937 -7.43651,-0.196758 -1.38503,-0.208859 -2.77017,-0.572217 -4.17898,-0.475416 -2.47363,0.143105 -4.94599,0.309081 -7.4215,0.418867 -4.02799,0.184878 -8.08397,0.407141 -12.09366,-0.158179 -2.42642,-0.43022 -4.71637,-1.254929 -7.0098,-2.144204 -1.02478,-0.320662 -1.55246,-0.518933 -2.60794,-0.718092 -2.26781,-0.427916 -4.59562,-0.335709 -6.87508,-0.05927 -3.55288,0.478102 -7.10191,1.159182 -10.69401,1.214419 -2.69397,-0.05045 -5.387,-0.156713 -8.08197,-0.14428 -3.81548,0.0016 -7.6324,0.05386 -11.44671,-0.06399 -4.35119,-0.157842 -8.69529,-0.436803 -13.04239,-0.677664 -4.471738,-0.172283 -8.947716,-0.162629 -13.419288,0.03109 -4.011348,0.203102 -8.01661,0.502761 -11.990869,1.104977 -3.109576,0.429196 -6.230469,0.783031 -9.324136,1.31944 -0.854877,0.13879 -1.955631,0.330546 -2.819773,0.419489 -1.704729,0.175455 -3.423785,0.08806 -5.131565,0.03099 -3.270924,-0.185658 -6.535922,-0.483579 -9.782378,-0.928034 -2.956211,-0.453241 -5.897213,-0.999683 -8.855223,-1.442672 -1.802847,-0.325758 -3.603194,-0.674095 -5.362737,-1.1918 -0.679172,-0.199318 -0.961046,0.761175 -0.281876,0.960493 z" />
    <path
       style="fill:#000000;fill-opacity:1;stroke:#000000;stroke-width:1.065;stroke-opacity:1"
       id="path118"
       d="m 36.550176,126.88149 c 1.809028,0.70322 3.736846,0.97345 5.653535,1.18859 2.625772,0.22114 5.265224,0.22685 7.898561,0.27321 3.134593,0.0125 6.26324,0.18472 9.390472,0.38213 2.777961,0.22963 5.559685,0.32926 8.346313,0.31852 3.586943,-0.12513 7.170762,-0.30924 10.758961,-0.40218 5.131695,-0.1004 10.264799,-0.10475 15.397292,-0.0986 5.619065,0.004 11.2234,0.46058 16.82752,0.81612 4.82722,0.32597 9.66479,0.43236 14.50131,0.49796 3.87285,0.008 7.74302,0.12581 11.61307,0.25932 2.9845,0.20092 5.96016,0.004 8.9337,-0.24492 4.96326,-0.51165 9.94325,-0.61218 14.92723,-0.52403 7.09968,0.21814 14.20276,-0.0154 21.30065,0.25006 4.87421,0.21059 9.71266,0.85539 14.56748,1.30055 3.30796,0.32313 6.62073,0.25792 9.92579,-0.0253 3.01309,-0.295 6.03264,-0.50172 9.05756,-0.61969 2.56442,-0.0858 5.13051,-0.0812 7.69598,-0.0913 2.67923,-0.008 5.35787,-0.0686 8.0357,-0.15146 3.20222,-0.0984 6.40485,-0.21972 9.6087,-0.1592 2.47488,0.0904 4.94681,0.24358 7.42132,0.34333 1.23982,0.0307 2.47373,0.14719 3.70381,0.29809 1.03869,0.13638 2.06971,0.32571 3.10121,0.50747 0.99711,0.17545 1.9943,0.34875 2.99755,0.48541 0.83077,0.093 1.66376,0.16591 2.49665,0.23715 0.85515,0.076 1.71139,0.0819 2.56602,0.005 0.63864,-0.0719 1.26443,-0.22203 1.89187,-0.35623 0.39611,-0.072 0.78078,-0.18616 1.16205,-0.31333 0.28707,-0.12279 0.58822,-0.17948 0.89628,-0.21523 0.60557,-0.0602 0.87288,-0.41563 0.51458,-1.06694 -0.0713,-0.12961 -0.2491,-0.15963 -0.37364,-0.23944 -0.61981,-0.3418 -1.10318,0.53476 -0.48337,0.87656 v 0 c 0.3039,0.0724 -0.0748,0.0195 0.16095,-0.45627 0.0971,-0.19601 0.42989,-0.13899 0.0641,-0.108 -0.37502,0.0449 -0.74494,0.11493 -1.09588,0.25983 -0.34597,0.1156 -0.69456,0.21996 -1.05442,0.28396 -0.58857,0.12589 -1.1754,0.26748 -1.77395,0.33827 -0.7957,0.0742 -1.59303,0.0642 -2.38931,-0.005 -0.81629,-0.0698 -1.63264,-0.14144 -2.44695,-0.23165 -0.99034,-0.13467 -1.97455,-0.30644 -2.95883,-0.47937 -1.04871,-0.18478 -2.09696,-0.37709 -3.15306,-0.51521 -1.25716,-0.15416 -2.51829,-0.27287 -3.78536,-0.30472 -2.48169,-0.1 -4.96077,-0.25403 -7.44286,-0.34396 -3.22046,-0.0599 -6.43965,0.0596 -9.65845,0.15949 -2.66882,0.0827 -5.33845,0.14285 -8.00866,0.151 -2.57717,0.0101 -5.15497,0.006 -7.73107,0.092 -3.04044,0.11873 -6.07554,0.32608 -9.10409,0.62259 -3.24616,0.27881 -6.49971,0.3436 -9.74884,0.0258 -4.87281,-0.44664 -9.72916,-1.09416 -14.62153,-1.30404 -7.10451,-0.26472 -14.21404,-0.0337 -21.32032,-0.2506 -5.01778,-0.0884 -10.03163,0.0128 -15.02856,0.52739 -2.93428,0.24621 -5.87037,0.44177 -8.81553,0.24201 -3.87702,-0.13375 -7.75418,-0.25149 -11.63401,-0.25983 -4.8199,-0.0653 -9.64087,-0.17115 -14.4515,-0.49604 -5.62483,-0.35685 -11.249867,-0.81475 -16.889696,-0.81813 -5.141539,-0.006 -10.283687,-0.002 -15.424425,0.0989 -3.58086,0.0928 -7.157389,0.2755 -10.736948,0.40185 -2.7643,0.011 -5.523645,-0.0887 -8.279338,-0.31654 -3.142361,-0.19834 -6.286164,-0.37113 -9.43591,-0.38396 -2.602031,-0.0458 -5.210045,-0.0515 -7.804777,-0.26715 -1.815719,-0.20287 -3.642296,-0.45324 -5.359619,-1.10908 -0.647192,-0.2866 -1.052513,0.62866 -0.405321,0.91527 z" />
    <path
       style="fill:#000000;fill-opacity:1;stroke:#000000;stroke-width:1.065;stroke-opacity:1"
       id="path119"
       d="m 92.911328,87.260455 c -1.587201,0.07258 -3.204085,0.224319 -4.707501,0.777047 -0.419941,0.15439 -0.819983,0.358296 -1.229974,0.537443 -3.017096,1.479106 -4.658076,3.788614 -6.274427,6.630501 -1.322728,2.698514 -2.299925,5.651654 -2.376275,8.684264 -0.01606,0.63837 0.04642,1.27631 0.06963,1.91446 0.362374,2.67037 1.050378,5.32076 2.3617,7.695 0.785884,1.42289 1.297535,1.98527 2.277819,3.24968 0.432449,0.45097 0.82015,0.94959 1.297345,1.35292 2.346187,1.98303 5.571662,3.52574 8.500864,4.40733 0.731882,0.22027 1.487728,0.35121 2.231594,0.52681 2.435918,0.38075 4.988757,0.51705 7.348357,-0.34986 1.18558,-0.43558 1.63414,-0.81178 2.66071,-1.48829 2.27423,-1.84081 3.41009,-4.07418 4.28636,-6.79878 0.68824,-3.01346 0.88847,-6.10882 0.97608,-9.19003 0.17807,-2.85227 -0.8232,-5.439556 -1.97246,-7.987157 -1.08528,-2.23561 -2.50574,-4.265089 -4.22979,-6.048103 -1.17065,-1.211794 -2.57104,-2.111928 -4.06785,-2.859468 -1.71152,-0.779484 -3.338763,-1.702874 -5.108595,-2.347658 -1.262629,-0.301496 -0.636932,-0.192114 -1.875507,-0.337032 -0.703329,-0.07957 -0.815859,0.915083 -0.112533,0.994653 v 0 c 1.08349,0.117774 0.534144,0.02638 1.6465,0.283311 1.735383,0.627422 3.324103,1.545127 5.003604,2.302613 1.396691,0.694658 2.703511,1.530332 3.795501,2.660155 1.64748,1.696411 2.99693,3.63524 4.03639,5.763535 1.08932,2.409191 2.05612,4.846271 1.88414,7.546841 -0.0841,2.98765 -0.27764,5.98797 -0.92877,8.91299 -0.79646,2.49747 -1.81843,4.56473 -3.88656,6.27007 -0.88785,0.59373 -1.3482,0.97262 -2.36968,1.35637 -2.197697,0.82562 -4.584191,0.68804 -6.857483,0.34125 -0.705037,-0.16398 -1.421685,-0.28427 -2.115116,-0.49193 -2.721594,-0.81502 -5.937125,-2.32992 -8.124282,-4.1615 -0.452141,-0.37864 -0.818939,-0.84883 -1.228408,-1.27325 -0.914781,-1.17438 -1.430959,-1.74611 -2.163564,-3.06394 -1.252281,-2.25262 -1.909119,-4.76976 -2.266106,-7.30505 -0.02429,-0.59547 -0.08608,-1.1906 -0.0729,-1.78642 0.06394,-2.89015 0.995998,-5.706256 2.250001,-8.279969 1.453872,-2.571281 3.067923,-4.886962 5.807297,-6.208281 0.369994,-0.164497 0.730562,-0.352086 1.10998,-0.49349 1.41124,-0.525947 2.932547,-0.663781 4.42391,-0.736034 0.707814,0 0.707814,-1.001001 0,-1.001001 z" />
    <path
       style="fill:#000000;fill-opacity:1;stroke:#000000;stroke-width:1.065;stroke-opacity:1"
       id="path120"
       d="m 96.741778,91.40314 c -1.272633,1.410626 -2.677406,2.687793 -4.179612,3.847883 -0.770562,0.566258 -1.601015,1.041894 -2.415519,1.540272 -0.603758,0.369427 -0.08131,1.223269 0.522449,0.853842 v 0 c 0.845563,-0.517382 1.707176,-1.012034 2.505464,-1.602298 1.544145,-1.195925 2.992408,-2.50707 4.301503,-3.959384 0.481055,-0.519218 -0.25323,-1.199534 -0.734285,-0.680315 z" />
    <path
       style="fill:#000000;fill-opacity:1;stroke:#000000;stroke-width:1.065;stroke-opacity:1"
       id="path121"
       d="m 87.555357,103.13267 c 0.216972,1.69936 0.326303,3.41271 0.469316,5.12011 0.05953,0.71523 0.116136,1.43071 0.170296,2.14637 0.01011,0.13349 0.02328,0.2668 0.02984,0.40051 0.0035,0.0718 -0.04333,0.15857 5.29e-4,0.21559 0.03683,0.048 0.0182,-0.11966 0.02728,-0.17949 -0.331414,0.62543 0.553082,1.09412 0.884494,0.46869 v 0 c 0.300165,-0.9972 -0.175958,-2.11723 -0.114816,-3.13523 -0.145447,-1.73648 -0.255595,-3.47919 -0.480449,-5.20704 -0.120552,-0.69747 -1.106926,-0.52698 -0.986372,0.17049 z" />
    <path
       style="fill:#000000;fill-opacity:1;stroke:#000000;stroke-width:1.065;stroke-opacity:1"
       id="path122"
       d="m 89.145175,103.75176 c 2.370841,-0.65486 4.763042,-1.14233 7.210592,-1.38812 1.658135,-0.0538 3.344994,-0.2577 5.002733,-0.0722 0.0391,0.0194 0.0957,0.0203 0.11719,0.0582 0.0123,0.0216 -0.0594,0.002 -0.0708,0.0236 -0.0229,0.0442 -0.019,0.0984 -0.0182,0.14819 0.008,0.53601 -0.0115,1.02406 -0.0742,1.5613 -0.22466,0.87341 -0.17762,2.31368 -1.05065,2.8818 -0.0865,0.0563 -0.20186,0.0435 -0.302795,0.0653 -0.742484,-0.25857 -1.347433,-0.75422 -1.965865,-1.21989 -0.567446,-0.42309 -1.165788,0.3794 -0.598342,0.80249 v 0 c 0.919454,0.67961 1.730068,1.36845 2.941042,1.34476 0.22657,-0.11132 0.47908,-0.18075 0.67971,-0.33396 1.00107,-0.76447 1.05363,-2.31639 1.2914,-3.4266 0.1117,-0.99268 0.41806,-2.55339 -0.84141,-2.90044 -1.728883,-0.17966 -3.481337,-10e-4 -5.210313,0.0715 -2.478357,0.25165 -4.904134,0.73471 -7.304447,1.40212 -0.694333,0.13749 -0.499896,1.11942 0.194437,0.98193 z" />
    <path
       style="fill:#000000;fill-opacity:1;stroke:#000000;stroke-width:1.065;stroke-opacity:1"
       id="path123"
       d="m 93.013206,94.380491 c 0.455112,1.815851 0.581721,3.694075 0.693666,5.556512 0.139057,2.522057 0.03652,5.047797 -0.038,7.570027 -0.06687,2.18667 -0.09977,4.37409 -0.11997,6.56161 0.02421,0.34987 -0.01834,0.69869 -0.01823,1.04811 1.6e-5,0.0509 -0.03355,-0.133 0.01363,-0.15198 0.248875,-0.10007 0.524401,-0.1132 0.786603,-0.16981 -0.260231,-0.65824 -1.191122,-0.29021 -0.930891,0.36802 v 0 c 0.329401,0.11338 0.639868,0.34462 0.988205,0.34013 0.265377,-0.003 0.128238,-1.36682 0.161631,-1.42523 0.02013,-2.18075 0.05291,-4.3614 0.119574,-6.54129 0.0754,-2.55214 0.178215,-5.10783 0.03663,-7.659762 -0.117383,-1.945505 -0.251831,-3.908152 -0.739757,-5.802278 -0.216334,-0.673944 -1.169434,-0.368003 -0.9531,0.305941 z" />
    <path
       style="fill:#000000;fill-opacity:1;stroke:#000000;stroke-width:1.065;stroke-opacity:1"
       id="path124"
       d="m 141.86028,87.718814 c -1.55522,-1.145008 -2.9007,-0.812956 -4.58712,-0.165536 -2.52839,1.398561 -4.53896,3.60119 -6.0915,6.017773 -0.46811,0.728623 -0.87192,1.496602 -1.30788,2.244902 -2.10498,4.177258 -3.74012,8.620287 -4.09377,13.319537 -0.0596,0.79249 -0.0304,1.58917 -0.0456,2.38376 0.10886,2.53118 0.49993,5.24107 2.14113,7.28548 0.919,1.1448 1.40519,1.31824 2.61299,2.08972 3.5161,1.71558 7.36919,1.34115 11.10946,0.76652 1.7614,-0.37406 3.56138,-0.78699 5.16336,-1.6478 1.72694,-0.92795 3.14384,-2.21376 4.55172,-3.5511 1.60166,-1.80109 3.1496,-3.73964 4.13581,-5.96212 0.5593,-1.26043 0.80767,-2.28132 1.18918,-3.59748 0.55163,-2.40493 0.92372,-4.8712 0.89728,-7.345081 -0.015,-1.403842 -0.12035,-2.042205 -0.27467,-3.41281 -0.40958,-2.140516 -1.00901,-4.277387 -2.19278,-6.132468 -0.65078,-1.019825 -1.05489,-1.391636 -1.85085,-2.263777 -1.83673,-1.792068 -3.99243,-2.649011 -6.44849,-3.194934 -1.52967,-0.315209 -2.51806,-0.36087 -4.02325,0.02817 -0.68374,0.18303 -0.42489,1.149985 0.25885,0.966954 v 0 c 1.19592,-0.33392 2.33156,-0.298715 3.54843,-0.0177 2.20907,0.484971 4.27618,1.280475 5.92637,2.893685 0.72221,0.785135 1.12212,1.155885 1.71218,2.070618 1.12205,1.739413 1.68102,3.751495 2.07489,5.762009 0.14787,1.299948 0.25279,1.942459 0.26875,3.271014 0.0287,2.3897 -0.3302,4.77225 -0.85832,7.09629 -0.3414,1.18397 -0.61202,2.27325 -1.11129,3.40536 -0.93794,2.12679 -2.41697,3.98095 -3.94239,5.70735 -1.31569,1.25615 -2.64751,2.48215 -4.26157,3.35847 -1.52252,0.82663 -3.23933,1.2166 -4.9158,1.57605 -3.49671,0.54152 -7.11631,0.93422 -10.42356,-0.62433 -1.05408,-0.65266 -1.4961,-0.80874 -2.3047,-1.78456 -1.54439,-1.86376 -1.87051,-4.4002 -1.98189,-6.72563 0.0126,-0.75835 -0.0181,-1.51865 0.0377,-2.27505 0.33699,-4.56666 1.92655,-8.88179 3.9662,-12.94306 0.41799,-0.720627 0.80482,-1.460246 1.25396,-2.161881 1.4447,-2.256907 3.3073,-4.331113 5.64525,-5.671884 1.22588,-0.492011 2.4834,-0.864496 3.62131,0.03435 0.56626,0.424683 1.16685,-0.376126 0.60059,-0.800806 z" />
    <path
       style="fill:#000000;fill-opacity:1;stroke:#000000;stroke-width:1.065;stroke-opacity:1"
       id="path125"
       d="m 144.25113,89.365631 c -1.32574,1.640372 -2.96362,2.980759 -4.70014,4.160454 -0.26562,0.165854 -0.53124,0.331711 -0.79686,0.497565 -0.60024,0.375126 -0.0697,1.223986 0.53051,0.848857 v 0 c 0.2765,-0.172953 0.553,-0.345908 0.82951,-0.518864 1.8188,-1.239713 3.53503,-2.645642 4.92263,-4.367739 0.4386,-0.555545 -0.34706,-1.175818 -0.78565,-0.620273 z" />
    <path
       style="fill:#000000;fill-opacity:1;stroke:#000000;stroke-width:1.065;stroke-opacity:1"
       id="path126"
       d="m 134.37427,100.37482 c 0.36098,1.69548 0.30092,3.44057 0.18175,5.15883 -0.0153,0.0951 -0.0305,0.19025 -0.0458,0.28538 -0.10786,0.69955 0.88144,0.85209 0.98931,0.15254 v 0 c 0.0184,-0.123 0.0367,-0.24601 0.0551,-0.36901 0.1248,-1.81713 0.18115,-3.66161 -0.20518,-5.45358 -0.1597,-0.689566 -1.13489,-0.463726 -0.9752,0.22584 z" />
    <path
       style="fill:#000000;fill-opacity:1;stroke:#000000;stroke-width:1.065;stroke-opacity:1"
       id="path127"
       d="m 136.00905,101.32359 c 1.95075,-0.72002 3.9624,-1.13206 6.0321,-1.27665 1.43417,-0.0292 2.87669,-0.0116 4.30136,0.17141 0.49319,0.10891 0.36648,0.50973 0.39372,0.95163 0.0428,1.4891 -0.12758,2.97409 -0.34368,4.44471 -0.20015,0.54921 -0.0922,1.40864 -0.52006,1.87587 -0.0181,0.0197 -0.0776,0.0131 -0.0792,-0.0136 -0.004,-0.0693 0.0446,-0.13142 0.0669,-0.19712 -0.54439,-0.49391 -0.96029,-1.10435 -1.38992,-1.69454 -0.41736,-0.57168 -1.22583,0.0185 -0.80847,0.59023 v 0 c 0.55088,0.75253 1.06694,1.53956 1.87163,2.05047 0.279,0.0229 0.56392,0.13046 0.83699,0.0689 0.69971,-0.15786 0.89308,-2.01303 1.01254,-2.53484 0.22571,-1.54117 0.40263,-3.09764 0.35195,-4.65804 -0.0723,-0.98483 -0.17993,-1.655235 -1.2657,-1.876538 -1.49044,-0.189036 -2.99867,-0.212722 -4.49896,-0.176942 -2.1538,0.155244 -4.25025,0.57691 -6.28093,1.32657 -0.67074,0.22609 -0.35101,1.17465 0.31973,0.94857 z" />
    <path
       style="fill:#000000;fill-opacity:1;stroke:#000000;stroke-width:1.065;stroke-opacity:1"
       id="path128"
       d="m 140.05767,93.782688 c -0.12508,2.312652 -0.2993,4.621906 -0.48655,6.930262 -0.31788,3.84863 -0.6217,7.69838 -0.88377,11.55123 -0.0686,1.01385 -0.12769,2.02829 -0.1873,3.0427 -0.009,0.15386 -0.016,0.30788 -0.0277,0.46156 -0.004,0.0473 -0.0649,0.14895 -0.0181,0.14115 0.33477,-0.0558 0.64858,-0.20028 0.97288,-0.30042 -0.0503,-0.70602 -1.0488,-0.63484 -0.99847,0.0712 v 0 c 0.33975,0.11673 0.66357,0.29972 1.01926,0.3502 0.0138,0.002 0.025,-0.21562 0.0515,-0.66572 0.0594,-1.01108 0.11833,-2.02219 0.18667,-3.03272 0.26175,-3.84852 0.56529,-7.69394 0.8828,-11.53824 0.18715,-2.307615 0.36184,-4.616107 0.48637,-6.928049 0.0588,-0.705369 -0.93876,-0.788501 -0.99755,-0.08313 z" />
    <path
       style="fill:#000000;fill-opacity:1;stroke:#000000;stroke-width:1.065;stroke-opacity:1"
       id="path129"
       d="m 241.51359,40.217185 c -1.73343,-0.21816 -3.18968,0.151079 -4.7824,0.81389 -0.36367,0.201946 -0.75957,0.354454 -1.091,0.605837 -2.67802,2.031281 -4.4451,5.24296 -5.96699,8.157533 -1.89874,3.601874 -2.81889,7.542355 -3.44832,11.532089 -0.20389,2.150597 -0.18237,4.381672 0.89873,6.322182 0.66367,1.191244 1.05992,1.4448 2.0206,2.388643 2.24104,1.716412 4.9537,2.71681 7.74748,3.076519 0.66807,0.08602 1.34328,0.102148 2.01492,0.153223 3.47474,0.173958 6.47798,-0.777227 9.26428,-2.857058 0.54573,-0.407363 1.04039,-0.879015 1.56059,-1.31852 2.34259,-2.306288 4.27248,-5.067675 5.47011,-8.142649 0.20793,-0.533866 0.36105,-1.087488 0.54157,-1.631233 0.90999,-3.267324 0.88814,-6.555674 0.34742,-9.874615 -0.46278,-2.08974 -1.44628,-4.044376 -2.99333,-5.548948 -0.90437,-0.879538 -1.49513,-1.183571 -2.53786,-1.846953 -2.28875,-1.179219 -4.83648,-1.618459 -7.38725,-1.674844 -1.10589,0.110765 -0.58306,0.01849 -1.57176,0.257654 -0.68684,0.171018 -0.44498,1.142362 0.24186,0.971341 v 0 c 0.80976,-0.20877 0.37467,-0.125405 1.30925,-0.228209 2.36782,0.04506 4.73868,0.44848 6.87254,1.519865 0.92246,0.580644 1.51957,0.893093 2.31826,1.658443 1.42394,1.364495 2.33274,3.14525 2.76049,5.053721 0.51766,3.131717 0.54437,6.314199 -0.31009,9.398548 -0.16837,0.512352 -0.3103,1.034155 -0.5051,1.537052 -1.13782,2.937478 -2.97477,5.578448 -5.20354,7.787393 -0.48735,0.414954 -0.95041,0.860261 -1.46205,1.244862 -2.60408,1.957478 -5.3813,2.860159 -8.64096,2.695919 -0.63546,-0.04637 -1.27423,-0.05941 -1.90637,-0.139126 -2.59748,-0.327554 -5.13191,-1.238564 -7.23277,-2.810174 -0.85235,-0.81852 -1.20588,-1.040907 -1.80197,-2.073791 -1.01363,-1.756383 -1.00129,-3.806645 -0.82624,-5.76349 0.61068,-3.882988 1.49943,-7.719142 3.34707,-11.224982 1.24152,-2.383819 2.55207,-4.678741 4.4138,-6.644293 0.36576,-0.386157 0.73313,-0.776716 1.15379,-1.102201 0.29951,-0.231744 0.66021,-0.371182 0.99031,-0.556771 1.4539,-0.616323 2.75546,-0.941761 4.34162,-0.737277 0.70681,0.03769 0.76012,-0.961885 0.0533,-0.99958 z" />
    <path
       style="fill:#000000;fill-opacity:1;stroke:#000000;stroke-width:1.065;stroke-opacity:1"
       id="path130"
       d="m 242.94164,45.522636 c -1.00311,1.37286 -2.1409,2.636457 -3.398,3.779173 -1.07452,0.922685 -2.44433,1.332738 -3.80482,1.621544 -0.69223,0.14768 -0.48339,1.126649 0.20885,0.978969 v 0 c 1.53409,-0.328758 3.06372,-0.813374 4.27006,-1.860507 1.30122,-1.187641 2.48534,-2.493799 3.52471,-3.918567 0.42469,-0.566248 -0.3761,-1.166857 -0.8008,-0.600612 z" />
    <path
       style="fill:#000000;fill-opacity:1;stroke:#000000;stroke-width:1.065;stroke-opacity:1"
       id="path131"
       d="m 234.02874,56.295459 c -0.14591,1.354045 -0.41013,2.69264 -0.69544,4.023283 -0.14836,0.692092 0.83041,0.901898 0.97876,0.209806 v 0 c 0.29238,-1.364289 0.56228,-2.736831 0.71183,-4.125084 0.0764,-0.703683 -0.91878,-0.811686 -0.99515,-0.108005 z" />
    <path
       style="fill:#000000;fill-opacity:1;stroke:#000000;stroke-width:1.065;stroke-opacity:1"
       id="path132"
       d="m 235.16954,56.922817 c 1.88209,-0.437504 3.80502,-0.646564 5.72513,-0.831045 1.43983,-0.0066 2.90376,-0.391385 4.34528,-0.283435 0.023,0.01513 0.0695,0.01786 0.069,0.04538 -5.3e-4,0.03639 -0.097,5.29e-4 -0.10287,0.03655 -0.0462,0.284284 -0.0651,0.558811 -0.12867,0.84781 -0.33761,1.274204 -0.81122,2.505358 -1.3115,3.722886 -0.0551,0.126253 -0.33464,0.771821 -0.41218,0.929454 -0.0609,0.123857 -0.33231,0.440894 -0.25073,0.32955 0.2644,-0.360876 0.32649,-0.05584 0.007,-0.519473 -0.56654,-0.868868 -0.28398,-0.408307 -0.84095,-1.385792 -0.35119,-0.614542 -1.22029,-0.117885 -0.8691,0.49666 v 0 c 0.61732,1.077314 0.29347,0.557339 0.96867,1.561706 0.19167,0.186846 0.32862,0.455943 0.57502,0.560535 1.14914,0.487807 1.40608,-0.870116 1.74855,-1.592286 0.5228,-1.273056 1.01722,-2.560928 1.36461,-3.894714 0.17564,-0.846508 0.32466,-1.896843 -0.75616,-2.137453 -1.49948,-0.07578 -3.00519,0.240396 -4.50141,0.286211 -1.96711,0.189301 -3.93695,0.40504 -5.86485,0.854556 -0.68794,0.16655 -0.4524,1.139444 0.23554,0.972894 z" />
    <path
       style="fill:#000000;fill-opacity:1;stroke:#000000;stroke-width:1.065;stroke-opacity:1"
       id="path133"
       d="m 239.34808,50.607428 c -0.49886,2.265084 -0.70172,4.578096 -0.87422,6.886458 -0.15378,2.244212 -0.2059,4.493689 -0.23412,6.74247 -0.003,0.319802 -0.006,0.639611 -0.006,0.959429 5.3e-4,0.707814 1.00144,0.707186 1.001,-5.29e-4 v 0 c -2.2e-4,-0.315426 0.003,-0.630841 0.006,-0.94625 0.0279,-2.228107 0.0793,-4.456917 0.23143,-6.680515 0.1683,-2.257732 0.36504,-4.520158 0.85136,-6.735876 0.15916,-0.689687 -0.8162,-0.914776 -0.97536,-0.225089 z" />
    <path
       style="fill:#000000;fill-opacity:1;stroke:#000000;stroke-width:1.065;stroke-opacity:1"
       id="path134"
       d="m 189.76832,139.97094 c -2.43334,-0.29904 -4.20704,1.37427 -5.79007,2.98685 -2.89797,3.21623 -4.2831,7.33081 -5.36319,11.43938 -0.73085,3.4817 -0.84767,7.13162 0.66147,10.43979 0.2837,0.6219 0.66917,1.19214 1.00375,1.78821 0.38315,0.52153 0.72674,1.07458 1.14945,1.56461 1.69757,1.96791 4.26122,3.70587 6.72449,4.54179 0.65147,0.22107 1.33501,0.333 2.00251,0.4995 0.68423,0.0346 1.36846,0.13863 2.05268,0.10385 2.88841,-0.14678 5.93565,-1.60102 8.22222,-3.30485 0.622,-0.46347 1.18393,-1.00254 1.7759,-1.50381 0.5028,-0.553 1.05463,-1.06513 1.50842,-1.65902 1.85844,-2.43223 2.85584,-5.53707 3.24862,-8.54282 0.0972,-0.74396 0.11637,-1.49604 0.17456,-2.24406 0.069,-3.05071 -0.52195,-6.15687 -1.92557,-8.88984 -0.77691,-1.5127 -1.31927,-2.0648 -2.35395,-3.357 -0.88239,-0.81399 -1.75326,-1.71321 -2.805,-2.32379 -2.26934,-1.31742 -4.67308,-1.71829 -7.23449,-1.93546 -0.95046,0.0195 -1.90067,-0.0219 -2.83311,0.21742 -0.40195,0.10314 -0.77423,0.29894 -1.16135,0.44841 -0.65742,0.26229 -0.28649,1.19202 0.37093,0.92974 v 0 c 0.31127,-0.12916 0.60808,-0.30107 0.93382,-0.38748 0.84984,-0.22544 1.74034,-0.18944 2.60668,-0.21054 2.32721,0.18981 4.66174,0.56188 6.72612,1.74554 0.96401,0.55273 1.80611,1.40538 2.61617,2.14326 0.95267,1.18052 1.497,1.74014 2.21181,3.1188 1.3408,2.58598 1.91004,5.53242 1.84986,8.42449 -0.0538,0.71386 -0.0707,1.43146 -0.16136,2.14157 -0.35954,2.81548 -1.27437,5.76257 -3.00565,8.04977 -0.42488,0.5613 -0.94308,1.04543 -1.41462,1.56815 -0.55921,0.47674 -1.09017,0.98874 -1.67763,1.4302 -2.07606,1.56014 -4.99672,2.98169 -7.62642,3.14138 -0.61925,0.0376 -1.23974,-0.0506 -1.85961,-0.076 -0.61505,-0.14888 -1.24484,-0.2464 -1.84514,-0.44663 -2.29458,-0.76535 -4.72768,-2.39272 -6.3153,-4.21678 -0.39856,-0.45792 -0.72261,-0.97572 -1.08393,-1.46358 -0.31069,-0.54382 -0.66928,-1.06295 -0.93208,-1.63147 -1.44146,-3.11833 -1.322,-6.56144 -0.63603,-9.84935 1.03197,-3.94094 2.34338,-7.90001 5.11139,-10.99432 1.31649,-1.35791 2.78349,-2.86962 4.82784,-2.71561 0.68614,0.17382 0.93195,-0.79653 0.24581,-0.97035 z" />
    <path
       style="fill:#000000;fill-opacity:1;stroke:#000000;stroke-width:1.065;stroke-opacity:1"
       id="path135"
       d="m 193.20974,143.78775 c -0.99527,1.78938 -2.50553,3.11047 -4.20516,4.20094 -0.28089,0.15688 -0.56177,0.31377 -0.84265,0.47066 -0.61761,0.34576 -0.12862,1.2192 0.48899,0.87343 v 0 c 0.29858,-0.16752 0.59716,-0.33505 0.89573,-0.50257 1.83088,-1.18376 3.45853,-2.61526 4.53269,-4.54669 0.35056,-0.6149 -0.51904,-1.11067 -0.8696,-0.49577 z" />
    <path
       style="fill:#000000;fill-opacity:1;stroke:#000000;stroke-width:1.065;stroke-opacity:1"
       id="path136"
       d="m 185.96754,154.21407 c 0.0192,1.60959 -0.0968,3.21638 -0.20633,4.82113 -0.0482,0.70618 0.95048,0.77433 0.99868,0.0682 v 0 c 0.11106,-1.62743 0.22785,-3.25696 0.20865,-4.88929 0,-0.70781 -1.001,-0.70781 -1.001,0 z" />
    <path
       style="fill:#000000;fill-opacity:1;stroke:#000000;stroke-width:1.065;stroke-opacity:1"
       id="path137"
       d="m 187.02165,154.16585 c 2.14391,-0.91699 4.43508,-1.44236 6.72651,-1.83031 1.4947,-0.16659 3.05457,-0.25235 4.51339,0.18398 0.0533,0.0378 0.11968,0.0619 0.15991,0.11341 0.0368,0.0471 -0.0755,1.28931 -0.0796,1.34523 -0.10848,1.35128 -0.20646,2.70282 -0.45521,4.0366 -0.0365,0.11698 -0.30172,1.34149 -0.5064,1.21963 -0.0845,-0.0503 0.0915,-0.2028 0.048,-0.29092 -0.0799,-0.16184 -0.25944,-0.2513 -0.38147,-0.38429 -0.19067,-0.2078 -0.37078,-0.42505 -0.55617,-0.63757 -0.46885,-0.53026 -1.21876,0.13279 -0.74991,0.66306 v 0 c 0.29199,0.32648 0.97674,1.18919 1.44497,1.32996 1.28822,0.38728 1.46532,-0.83941 1.68519,-1.71731 0.25285,-1.37015 0.36066,-2.75699 0.46924,-4.14506 0.0707,-0.95483 0.25967,-2.02667 -0.79754,-2.4935 -1.61088,-0.4626 -3.31197,-0.41293 -4.9621,-0.21007 -2.38418,0.40678 -4.76902,0.95326 -6.99667,1.91702 -0.63649,0.30964 -0.1986,1.20978 0.4379,0.90014 z" />
    <path
       style="fill:#000000;fill-opacity:1;stroke:#000000;stroke-width:1.065;stroke-opacity:1"
       id="path138"
       d="m 190.47013,146.79667 c 0,2.04648 0,4.09296 0,6.13944 0,2.67908 0,5.35816 0,8.03723 0.0159,1.70097 -0.078,3.39864 -0.20727,5.09372 -0.0105,0.13008 -0.0194,0.2603 -0.0317,0.39023 -0.0133,0.1415 -0.0476,0.28056 -0.0598,0.42216 -0.003,0.0345 -0.009,-0.0975 0.025,-0.10078 0.96281,-0.0901 0.91685,0.33838 0.88536,-0.19868 -0.0548,-0.70569 -1.0528,-0.62819 -0.998,0.0775 v 0 c 0.0523,0.58377 -0.0565,0.55375 0.98274,0.61609 0.1078,0.006 0.19065,-1.02345 0.19446,-1.13041 0.13116,-1.7204 0.22596,-3.44347 0.21017,-5.16983 0,-2.67907 0,-5.35815 0,-8.03723 0,-2.04648 0,-4.09296 0,-6.13944 0,-0.70781 -1.001,-0.70781 -1.001,0 z" />
    <path
       style="fill:#000000;fill-opacity:1;stroke:#000000;stroke-width:1.065;stroke-opacity:1"
       id="path139"
       d="m 47.41333,41.736356 c -0.291108,3.273774 -1.824522,6.238296 -3.348265,9.090369 -0.645639,1.154329 -1.405763,2.236446 -2.160511,3.320119 -0.2789,0.400446 -0.635084,0.829595 -0.772673,1.315328 -0.06215,0.219411 -0.04759,0.453602 -0.07139,0.680402 0.08766,0.237025 0.117092,0.504722 0.26298,0.711076 0.370292,0.523748 1.227064,1.115441 1.726517,1.478915 1.07046,0.779015 2.131682,1.548826 3.166031,2.376204 1.370362,0.967859 2.332138,2.419906 3.667659,3.417729 0.225039,-0.02273 0.450078,-0.04544 0.675119,-0.06815 0.556723,-0.437102 -0.06143,-1.224431 -0.618156,-0.787328 v 0 c 0.176921,0.01505 0.35384,0.03012 0.530762,0.04518 -0.421728,-0.291261 -0.766249,-0.703034 -1.126038,-1.063341 -0.805249,-0.806416 -1.622549,-1.601994 -2.504265,-2.325929 -1.103548,-0.881853 -1.000152,-0.819763 -2.147761,-1.653974 -0.814818,-0.592298 -1.728115,-1.135459 -2.459942,-1.836483 -0.07137,-0.06837 -0.115551,-0.16038 -0.173326,-0.24057 -0.03553,-0.618543 0.31945,-0.979445 0.666316,-1.477576 0.776994,-1.115825 1.558258,-2.230895 2.221701,-3.420144 1.613038,-3.023084 3.23623,-6.179841 3.461274,-9.66143 -0.07043,-0.704302 -1.066464,-0.604695 -0.996032,0.09961 z" />
    <path
       style="fill:#000000;fill-opacity:1;stroke:#000000;stroke-width:1.065;stroke-opacity:1"
       id="path140"
       d="m 48.019459,53.409651 c -0.609143,2.089957 -1.725102,3.952769 -2.894119,5.769533 -1.089088,1.298781 -2.222796,2.853296 -3.844567,3.539696 -0.232424,0.09837 -0.492207,0.111911 -0.738312,0.167868 -0.685808,0.17512 -0.438153,1.144998 0.247655,0.96988 v 0 c 0.33332,-0.092 0.683517,-0.136596 0.999953,-0.275994 1.755376,-0.773282 3.001272,-2.428158 4.177289,-3.860147 1.209318,-1.882812 2.362084,-3.814926 2.996277,-5.978371 0.235088,-0.667631 -0.709089,-1.000099 -0.944176,-0.332465 z" />
    <path
       style="fill:#000000;fill-opacity:1;stroke:#000000;stroke-width:1.065;stroke-opacity:1"
       id="path141"
       d="m 39.914697,52.096013 c 2.160725,0.236355 4.339093,0.08192 6.501363,-0.05095 1.079344,-0.02138 0.580853,-0.02658 1.495547,0.0028 0.707472,0.02199 0.738587,-0.978514 0.03112,-1.000517 v 0 c -0.979837,-0.02951 -0.450493,-0.02503 -1.588085,-0.0013 -2.095193,0.12886 -4.205817,0.281427 -6.300015,0.0589 -0.700863,-0.09894 -0.84079,0.89223 -0.139925,0.991171 z" />
    <path
       style="fill:#000000;fill-opacity:1;stroke:#000000;stroke-width:1.065;stroke-opacity:1"
       id="path142"
       d="m 55.359275,43.962624 c -0.539085,1.124931 -1.097272,2.240568 -1.64819,3.359721 -0.191656,0.389335 -0.802759,1.564553 -0.930227,2.053389 -0.0613,0.235072 -0.03669,0.484479 -0.05503,0.726721 0.276206,0.217979 0.488839,0.562535 0.828622,0.653938 0.516906,0.13905 1.920073,-0.381153 2.326955,-0.530614 1.295773,-0.47598 2.551535,-1.067988 3.811386,-1.629642 0.696116,-0.321091 1.399902,-0.624615 2.094981,-0.947854 0.641763,-0.298564 0.21953,-1.206154 -0.422232,-0.90759 v 0 c -0.690121,0.321196 -1.389274,0.621967 -2.08035,0.941187 -1.230964,0.548819 -2.45749,1.121214 -3.720423,1.594299 -0.351999,0.131855 -0.709239,0.249735 -1.067938,0.362088 -0.206187,0.06459 -0.44446,0.05118 -0.625916,0.168468 -0.10077,0.06513 -0.09644,0.219736 -0.144659,0.329605 -0.03764,-0.835607 0.527328,-1.649545 0.882785,-2.371633 0.55526,-1.127974 1.117987,-2.252334 1.660832,-3.386367 0.293957,-0.643888 -0.616638,-1.059604 -0.910593,-0.415716 z" />
    <path
       style="fill:#000000;fill-opacity:1;stroke:#000000;stroke-width:1.065;stroke-opacity:1"
       id="path143"
       d="m 60.627873,45.569774 c 0.580268,1.127935 1.099693,2.285876 1.634006,3.435975 0.298225,0.641921 1.206037,0.220167 0.907814,-0.421754 v 0 c -0.541207,-1.164937 -1.06745,-2.337766 -1.655775,-3.479975 -0.32934,-0.626528 -1.215382,-0.160774 -0.886045,0.465754 z" />
    <path
       style="fill:#000000;fill-opacity:1;stroke:#000000;stroke-width:1.065;stroke-opacity:1"
       id="path144"
       d="m 51.177015,56.616911 c 0.613706,1.724457 0.840184,3.552804 1.322496,5.310778 0.188637,0.682215 1.153432,0.415441 0.964795,-0.266774 v 0 c -0.495327,-1.775664 -0.70938,-3.630158 -1.341258,-5.371148 -0.231322,-0.668946 -1.177356,-0.341804 -0.946033,0.327144 z" />
    <path
       style="fill:#000000;fill-opacity:1;stroke:#000000;stroke-width:1.065;stroke-opacity:1"
       id="path145"
       d="m 54.415277,55.541449 c 2.013153,-0.09878 3.99016,-0.537549 6.009581,-0.492691 1.634009,0.277849 1.633818,1.302729 1.662877,2.732603 -0.01167,1.341768 -0.427132,2.524879 -1.056886,3.685667 -0.333676,0.624226 0.549114,1.096116 0.882791,0.47189 v 0 c 0.713917,-1.352817 1.160264,-2.62954 1.174765,-4.18324 -0.0634,-2.09424 -0.352525,-3.325146 -2.644235,-3.707733 -2.026573,-0.0338 -4.01048,0.366993 -6.028893,0.492506 -0.707816,0 -0.707816,1.000998 0,1.000998 z" />
    <path
       style="fill:#000000;fill-opacity:1;stroke:#000000;stroke-width:1.065;stroke-opacity:1"
       id="path146"
       d="m 52.813182,64.839841 c 1.411219,-0.09092 2.81803,-0.154241 4.231415,-0.102544 0.707369,0.02514 0.742921,-0.975228 0.03555,-1.000369 v 0 c -1.434293,-0.04957 -2.862046,0.0066 -4.294016,0.102278 -0.707554,0.01913 -0.680511,1.019757 0.02705,1.000635 z" />
    <path
       style="fill:#000000;fill-opacity:1;stroke:#000000;stroke-width:1.065;stroke-opacity:1"
       id="path147"
       d="m 230.94997,139.23754 c -1.20295,2.62445 -2.84789,5.00436 -4.55127,7.32248 -0.20853,0.3153 -2.08991,2.39239 -1.62349,2.86669 0.2452,0.24934 0.62354,0.35897 0.9712,0.39677 0.32038,0.0348 0.63223,-0.12535 0.94834,-0.18803 1.72906,-0.46088 3.4613,-0.90853 5.18152,-1.40145 0.68041,-0.19503 0.40459,-1.15728 -0.27582,-0.96225 v 0 c -1.69703,0.48661 -3.40633,0.92693 -5.11151,1.38409 -0.24662,0.0555 -0.53887,0.0133 -0.73985,0.16665 -0.10446,0.0797 0.0303,0.26526 0.005,0.39418 -0.01,0.0494 -0.12328,0.15588 -0.1042,0.1093 0.33981,-0.82921 1.11167,-1.41296 1.55568,-2.17332 1.74383,-2.37439 3.42541,-4.81337 4.65612,-7.50152 0.29245,-0.64457 -0.61911,-1.05816 -0.91156,-0.41359 z" />
    <path
       style="fill:#000000;fill-opacity:1;stroke:#000000;stroke-width:1.065;stroke-opacity:1"
       id="path148"
       d="m 236.85546,142.16654 c -1.69435,3.3578 -3.71049,6.53453 -5.77042,9.67609 -0.31174,0.47699 -0.62764,0.95128 -0.9352,1.43097 -0.52572,0.81993 -1.95675,2.85169 0.35021,2.59564 0.3569,-0.0396 0.6816,-0.2263 1.02239,-0.33945 1.37711,-0.54926 2.71039,-1.20004 4.03987,-1.85403 0.63512,-0.31246 0.19324,-1.21065 -0.44188,-0.89819 v 0 c -1.29213,0.63576 -2.58796,1.2681 -3.92471,1.80604 -0.78029,0.28268 -0.70317,0.049 -0.92079,0.52375 -0.0391,0.0854 -0.13018,0.35172 -0.10682,0.26075 0.29039,-1.13078 1.24914,-1.95427 1.75404,-2.97662 2.07555,-3.16578 4.1067,-6.36714 5.81466,-9.75036 0.33558,-0.62321 -0.54577,-1.0978 -0.88135,-0.47459 z" />
    <path
       style="fill:#000000;fill-opacity:1;stroke:#000000;stroke-width:1.065;stroke-opacity:1"
       id="path149"
       d="m 229.47011,163.59281 c 1.29868,-0.93737 2.67932,-1.75215 4.04625,-2.58396 0.60466,-0.36796 0.0843,-1.22307 -0.52037,-0.85511 v 0 c -1.38466,0.84265 -2.78275,1.6687 -4.09846,2.618 -0.58058,0.40487 -0.008,1.22594 0.57258,0.82107 z" />
    <path
       style="fill:#000000;fill-opacity:1;stroke:#000000;stroke-width:1.065;stroke-opacity:1"
       id="path150"
       d="m 245.96384,139.31924 c -1.84963,2.60803 -3.47679,5.36618 -5.33739,7.97031 -1.1592,1.3808 -0.58539,0.78744 -1.68275,1.81667 -0.51464,0.48595 0.17258,1.21376 0.68723,0.72782 v 0 c 1.19397,-1.13419 0.57923,-0.49062 1.81011,-1.96273 1.84067,-2.57845 3.4626,-5.30058 5.27686,-7.89374 0.46551,-0.5332 -0.28856,-1.19153 -0.75406,-0.65833 z" />
    <path
       style="fill:#000000;fill-opacity:1;stroke:#000000;stroke-width:1.065;stroke-opacity:1"
       id="path151"
       d="m 245.89889,143.85635 c 1.309,0.059 2.77973,-0.44251 4.06455,-0.14216 0.17974,0.042 0.333,0.15937 0.49951,0.23906 -0.004,0.2878 0.007,0.63076 -0.0949,0.90048 -0.70069,1.86061 -2.47237,3.10565 -3.99438,4.2306 -0.55603,0.28769 -1.11207,0.57538 -1.6681,0.86307 -0.62757,0.32735 -0.16462,1.21486 0.46294,0.88751 v 0 c 0.60072,-0.3157 1.20144,-0.63139 1.80216,-0.94709 0.54674,-0.40822 1.12126,-0.78166 1.64023,-1.22466 1.09759,-0.93693 3.22339,-3.08777 2.7668,-4.76181 -0.0892,-0.32684 -0.3501,-0.58011 -0.52514,-0.87017 -0.27058,-0.105 -0.52813,-0.25332 -0.81175,-0.315 -1.3618,-0.29613 -2.79573,0.18411 -4.16663,0.13947 -0.7076,0.0175 -0.68289,1.01817 0.0247,1.0007 z" />
    <path
       style="fill:#000000;fill-opacity:1;stroke:#000000;stroke-width:1.065;stroke-opacity:1"
       id="path152"
       d="m 244.03503,147.02059 c 2.05677,1.45651 4.19194,2.80369 6.30638,4.1755 1.9001,1.16833 3.84991,2.4275 6.06561,2.87976 0.15542,0.001 0.31083,0.002 0.46624,0.003 0.70772,-0.0114 0.69156,-1.0123 -0.0162,-1.00087 v 0 c -0.086,0.005 -0.172,0.0101 -0.25801,0.0151 -2.09315,-0.3862 -3.9161,-1.67537 -5.71286,-2.73711 -2.07554,-1.34656 -4.16735,-2.67365 -6.19467,-4.09139 -0.53432,-0.46423 -1.19084,0.29141 -0.65652,0.75564 z" />
    <path
       style="fill:#000000;fill-opacity:1;stroke:#000000;stroke-width:1.065;stroke-opacity:1"
       id="path153"
       d="m 247.14675,156.45542 c 0.70791,1.12985 1.72431,2.02155 2.59547,3.02288 0.46481,0.53381 1.21973,-0.12354 0.75492,-0.65734 v 0 c -0.82515,-0.94689 -1.7806,-1.79491 -2.47255,-2.84656 -0.34013,-0.62073 -1.21798,-0.13971 -0.87784,0.48102 z" />
    <path
       style="fill:#000000;fill-opacity:1;stroke:#000000;stroke-width:1.065;stroke-opacity:1"
       id="path154"
       d="m 243.95215,163.45512 c 0.89568,0.90059 1.92242,1.65288 2.94282,2.4031 0.57033,0.41919 1.16316,-0.38738 0.59283,-0.80657 v 0 c -0.9732,-0.71508 -1.95391,-1.43038 -2.81046,-2.28653 -0.48791,-0.51278 -1.21309,0.17722 -0.72519,0.69 z" />
  </g>
</svg>
